<svg version="1.1" viewBox="0.0 0.0 686.0 424.0" fill="none" stroke="none" stroke-linecap="square" stroke-miterlimit="10" width="686" height="424" xmlns:xlink="http://www.w3.org/1999/xlink" xmlns="http://www.w3.org/2000/svg"><path fill="#ffffff" d="M0 0L686.0 0L686.0 424.0L0 424.0L0 0Z" fill-rule="nonzero"/><path stroke="#333333" stroke-width="1.0" stroke-linecap="butt" d="M80.5 350.5L664.5 350.5" fill-rule="nonzero"/><path stroke="#cccccc" stroke-width="1.0" stroke-linecap="butt" d="M80.5 286.5L664.5 286.5" fill-rule="nonzero"/><path stroke="#cccccc" stroke-width="1.0" stroke-linecap="butt" d="M80.5 222.5L664.5 222.5" fill-rule="nonzero"/><path stroke="#cccccc" stroke-width="1.0" stroke-linecap="butt" d="M80.5 158.5L664.5 158.5" fill-rule="nonzero"/><path stroke="#cccccc" stroke-width="1.0" stroke-linecap="butt" d="M80.5 94.5L664.5 94.5" fill-rule="nonzero"/><clipPath id="id_0"><path d="M80.2 94.46667L664.8 94.46667L664.8 350.8L80.2 350.8L80.2 94.46667Z" clip-rule="nonzero"/></clipPath><path stroke="#000000" stroke-width="2.0" stroke-linecap="butt" stroke-opacity="0.0" clip-path="url(#id_0)" d="M97.0 351.0L90.0 351.0L90.0 336.0C90.0 334.89542 90.89543 334.0 92.0 334.0L95.0 334.0C96.10457 334.0 97.0 334.89542 97.0 336.0Z" fill-rule="nonzero"/><path fill="#4285f4" clip-path="url(#id_0)" d="M97.0 351.0L90.0 351.0L90.0 336.0C90.0 334.89542 90.89543 334.0 92.0 334.0L95.0 334.0C96.10457 334.0 97.0 334.89542 97.0 336.0Z" fill-rule="nonzero"/><path stroke="#000000" stroke-width="2.0" stroke-linecap="butt" stroke-opacity="0.0" clip-path="url(#id_0)" d="M123.0 351.0L116.0 351.0L116.0 315.0C116.0 313.89542 116.89543 313.0 118.0 313.0L121.0 313.0C122.10457 313.0 123.0 313.89542 123.0 315.0Z" fill-rule="nonzero"/><path fill="#4285f4" clip-path="url(#id_0)" d="M123.0 351.0L116.0 351.0L116.0 315.0C116.0 313.89542 116.89543 313.0 118.0 313.0L121.0 313.0C122.10457 313.0 123.0 313.89542 123.0 315.0Z" fill-rule="nonzero"/><path stroke="#000000" stroke-width="2.0" stroke-linecap="butt" stroke-opacity="0.0" clip-path="url(#id_0)" d="M149.0 351.0L142.0 351.0L142.0 305.0C142.0 303.89542 142.89543 303.0 144.0 303.0L147.0 303.0C148.10457 303.0 149.0 303.89542 149.0 305.0Z" fill-rule="nonzero"/><path fill="#4285f4" clip-path="url(#id_0)" d="M149.0 351.0L142.0 351.0L142.0 305.0C142.0 303.89542 142.89543 303.0 144.0 303.0L147.0 303.0C148.10457 303.0 149.0 303.89542 149.0 305.0Z" fill-rule="nonzero"/><path stroke="#000000" stroke-width="2.0" stroke-linecap="butt" stroke-opacity="0.0" clip-path="url(#id_0)" d="M175.0 351.0L168.0 351.0L168.0 331.0C168.0 329.89542 168.89543 329.0 170.0 329.0L173.0 329.0C174.10457 329.0 175.0 329.89542 175.0 331.0Z" fill-rule="nonzero"/><path fill="#4285f4" clip-path="url(#id_0)" d="M175.0 351.0L168.0 351.0L168.0 331.0C168.0 329.89542 168.89543 329.0 170.0 329.0L173.0 329.0C174.10457 329.0 175.0 329.89542 175.0 331.0Z" fill-rule="nonzero"/><path stroke="#000000" stroke-width="2.0" stroke-linecap="butt" stroke-opacity="0.0" clip-path="url(#id_0)" d="M201.0 351.0L194.0 351.0L194.0 253.0C194.0 251.89543 194.89543 251.0 196.0 251.0L199.0 251.0C200.10457 251.0 201.0 251.89543 201.0 253.0Z" fill-rule="nonzero"/><path fill="#4285f4" clip-path="url(#id_0)" d="M201.0 351.0L194.0 351.0L194.0 253.0C194.0 251.89543 194.89543 251.0 196.0 251.0L199.0 251.0C200.10457 251.0 201.0 251.89543 201.0 253.0Z" fill-rule="nonzero"/><path stroke="#000000" stroke-width="2.0" stroke-linecap="butt" stroke-opacity="0.0" clip-path="url(#id_0)" d="M228.0 351.0L221.0 351.0L221.0 347.0C221.0 345.89542 221.89543 345.0 223.0 345.0L226.0 345.0C227.10457 345.0 228.0 345.89542 228.0 347.0Z" fill-rule="nonzero"/><path fill="#4285f4" clip-path="url(#id_0)" d="M228.0 351.0L221.0 351.0L221.0 347.0C221.0 345.89542 221.89543 345.0 223.0 345.0L226.0 345.0C227.10457 345.0 228.0 345.89542 228.0 347.0Z" fill-rule="nonzero"/><path stroke="#000000" stroke-width="2.0" stroke-linecap="butt" stroke-opacity="0.0" clip-path="url(#id_0)" d="M254.0 351.0L247.0 351.0L247.0 237.0C247.0 235.89543 247.89543 235.0 249.0 235.0L252.0 235.0C253.10457 235.0 254.0 235.89543 254.0 237.0Z" fill-rule="nonzero"/><path fill="#4285f4" clip-path="url(#id_0)" d="M254.0 351.0L247.0 351.0L247.0 237.0C247.0 235.89543 247.89543 235.0 249.0 235.0L252.0 235.0C253.10457 235.0 254.0 235.89543 254.0 237.0Z" fill-rule="nonzero"/><path stroke="#000000" stroke-width="2.0" stroke-linecap="butt" stroke-opacity="0.0" clip-path="url(#id_0)" d="M280.0 351.0L273.0 351.0L273.0 245.0C273.0 243.89543 273.89542 243.0 275.0 243.0L278.0 243.0C279.10458 243.0 280.0 243.89543 280.0 245.0Z" fill-rule="nonzero"/><path fill="#4285f4" clip-path="url(#id_0)" d="M280.0 351.0L273.0 351.0L273.0 245.0C273.0 243.89543 273.89542 243.0 275.0 243.0L278.0 243.0C279.10458 243.0 280.0 243.89543 280.0 245.0Z" fill-rule="nonzero"/><path stroke="#000000" stroke-width="2.0" stroke-linecap="butt" stroke-opacity="0.0" clip-path="url(#id_0)" d="M306.0 351.0L299.0 351.0L299.0 194.0C299.0 192.89543 299.89542 192.0 301.0 192.0L304.0 192.0C305.10458 192.0 306.0 192.89543 306.0 194.0Z" fill-rule="nonzero"/><path fill="#4285f4" clip-path="url(#id_0)" d="M306.0 351.0L299.0 351.0L299.0 194.0C299.0 192.89543 299.89542 192.0 301.0 192.0L304.0 192.0C305.10458 192.0 306.0 192.89543 306.0 194.0Z" fill-rule="nonzero"/><path stroke="#000000" stroke-width="2.0" stroke-linecap="butt" stroke-opacity="0.0" clip-path="url(#id_0)" d="M332.0 351.0L325.0 351.0L325.0 307.0C325.0 305.89542 325.89542 305.0 327.0 305.0L330.0 305.0C331.10458 305.0 332.0 305.89542 332.0 307.0Z" fill-rule="nonzero"/><path fill="#4285f4" clip-path="url(#id_0)" d="M332.0 351.0L325.0 351.0L325.0 307.0C325.0 305.89542 325.89542 305.0 327.0 305.0L330.0 305.0C331.10458 305.0 332.0 305.89542 332.0 307.0Z" fill-rule="nonzero"/><path stroke="#000000" stroke-width="2.0" stroke-linecap="butt" stroke-opacity="0.0" clip-path="url(#id_0)" d="M358.0 351.0L351.0 351.0L351.0 314.0C351.0 312.89542 351.89542 312.0 353.0 312.0L356.0 312.0C357.10458 312.0 358.0 312.89542 358.0 314.0Z" fill-rule="nonzero"/><path fill="#4285f4" clip-path="url(#id_0)" d="M358.0 351.0L351.0 351.0L351.0 314.0C351.0 312.89542 351.89542 312.0 353.0 312.0L356.0 312.0C357.10458 312.0 358.0 312.89542 358.0 314.0Z" fill-rule="nonzero"/><path stroke="#000000" stroke-width="2.0" stroke-linecap="butt" stroke-opacity="0.0" clip-path="url(#id_0)" d="M385.0 351.0L378.0 351.0L378.0 335.0C378.0 333.89542 378.89542 333.0 380.0 333.0L383.0 333.0C384.10458 333.0 385.0 333.89542 385.0 335.0Z" fill-rule="nonzero"/><path fill="#4285f4" clip-path="url(#id_0)" d="M385.0 351.0L378.0 351.0L378.0 335.0C378.0 333.89542 378.89542 333.0 380.0 333.0L383.0 333.0C384.10458 333.0 385.0 333.89542 385.0 335.0Z" fill-rule="nonzero"/><path stroke="#000000" stroke-width="2.0" stroke-linecap="butt" stroke-opacity="0.0" clip-path="url(#id_0)" d="M411.0 351.0L404.0 351.0L404.0 332.0C404.0 330.89542 404.89542 330.0 406.0 330.0L409.0 330.0C410.10458 330.0 411.0 330.89542 411.0 332.0Z" fill-rule="nonzero"/><path fill="#4285f4" clip-path="url(#id_0)" d="M411.0 351.0L404.0 351.0L404.0 332.0C404.0 330.89542 404.89542 330.0 406.0 330.0L409.0 330.0C410.10458 330.0 411.0 330.89542 411.0 332.0Z" fill-rule="nonzero"/><path stroke="#000000" stroke-width="2.0" stroke-linecap="butt" stroke-opacity="0.0" clip-path="url(#id_0)" d="M437.0 351.0L430.0 351.0L430.0 344.0C430.0 342.89542 430.89542 342.0 432.0 342.0L435.0 342.0C436.10458 342.0 437.0 342.89542 437.0 344.0Z" fill-rule="nonzero"/><path fill="#4285f4" clip-path="url(#id_0)" d="M437.0 351.0L430.0 351.0L430.0 344.0C430.0 342.89542 430.89542 342.0 432.0 342.0L435.0 342.0C436.10458 342.0 437.0 342.89542 437.0 344.0Z" fill-rule="nonzero"/><path stroke="#000000" stroke-width="2.0" stroke-linecap="butt" stroke-opacity="0.0" clip-path="url(#id_0)" d="M463.0 351.0L456.0 351.0L456.0 351.0C456.0 351.0 456.0 351.0 456.0 351.0L463.0 351.0C463.0 351.0 463.0 351.0 463.0 351.0Z" fill-rule="nonzero"/><path fill="#4285f4" clip-path="url(#id_0)" d="M463.0 351.0L456.0 351.0L456.0 351.0C456.0 351.0 456.0 351.0 456.0 351.0L463.0 351.0C463.0 351.0 463.0 351.0 463.0 351.0Z" fill-rule="nonzero"/><path stroke="#000000" stroke-width="2.0" stroke-linecap="butt" stroke-opacity="0.0" clip-path="url(#id_0)" d="M489.0 351.0L482.0 351.0L482.0 339.0C482.0 337.89542 482.89542 337.0 484.0 337.0L487.0 337.0C488.10458 337.0 489.0 337.89542 489.0 339.0Z" fill-rule="nonzero"/><path fill="#4285f4" clip-path="url(#id_0)" d="M489.0 351.0L482.0 351.0L482.0 339.0C482.0 337.89542 482.89542 337.0 484.0 337.0L487.0 337.0C488.10458 337.0 489.0 337.89542 489.0 339.0Z" fill-rule="nonzero"/><path stroke="#000000" stroke-width="2.0" stroke-linecap="butt" stroke-opacity="0.0" clip-path="url(#id_0)" d="M515.0 351.0L508.0 351.0L508.0 283.0C508.0 281.89542 508.89542 281.0 510.0 281.0L513.0 281.0C514.10455 281.0 515.0 281.89542 515.0 283.0Z" fill-rule="nonzero"/><path fill="#4285f4" clip-path="url(#id_0)" d="M515.0 351.0L508.0 351.0L508.0 283.0C508.0 281.89542 508.89542 281.0 510.0 281.0L513.0 281.0C514.10455 281.0 515.0 281.89542 515.0 283.0Z" fill-rule="nonzero"/><path stroke="#000000" stroke-width="2.0" stroke-linecap="butt" stroke-opacity="0.0" clip-path="url(#id_0)" d="M542.0 351.0L535.0 351.0L535.0 133.0C535.0 131.89543 535.89545 131.0 537.0 131.0L540.0 131.0C541.10455 131.0 542.0 131.89543 542.0 133.0Z" fill-rule="nonzero"/><path fill="#4285f4" clip-path="url(#id_0)" d="M542.0 351.0L535.0 351.0L535.0 133.0C535.0 131.89543 535.89545 131.0 537.0 131.0L540.0 131.0C541.10455 131.0 542.0 131.89543 542.0 133.0Z" fill-rule="nonzero"/><path stroke="#000000" stroke-width="2.0" stroke-linecap="butt" stroke-opacity="0.0" clip-path="url(#id_0)" d="M568.0 351.0L561.0 351.0L561.0 342.0C561.0 340.89542 561.89545 340.0 563.0 340.0L566.0 340.0C567.10455 340.0 568.0 340.89542 568.0 342.0Z" fill-rule="nonzero"/><path fill="#4285f4" clip-path="url(#id_0)" d="M568.0 351.0L561.0 351.0L561.0 342.0C561.0 340.89542 561.89545 340.0 563.0 340.0L566.0 340.0C567.10455 340.0 568.0 340.89542 568.0 342.0Z" fill-rule="nonzero"/><path stroke="#000000" stroke-width="2.0" stroke-linecap="butt" stroke-opacity="0.0" clip-path="url(#id_0)" d="M594.0 351.0L587.0 351.0L587.0 332.0C587.0 330.89542 587.89545 330.0 589.0 330.0L592.0 330.0C593.10455 330.0 594.0 330.89542 594.0 332.0Z" fill-rule="nonzero"/><path fill="#4285f4" clip-path="url(#id_0)" d="M594.0 351.0L587.0 351.0L587.0 332.0C587.0 330.89542 587.89545 330.0 589.0 330.0L592.0 330.0C593.10455 330.0 594.0 330.89542 594.0 332.0Z" fill-rule="nonzero"/><path stroke="#000000" stroke-width="2.0" stroke-linecap="butt" stroke-opacity="0.0" clip-path="url(#id_0)" d="M620.0 351.0L613.0 351.0L613.0 198.0C613.0 196.89543 613.89545 196.0 615.0 196.0L618.0 196.0C619.10455 196.0 620.0 196.89543 620.0 198.0Z" fill-rule="nonzero"/><path fill="#4285f4" clip-path="url(#id_0)" d="M620.0 351.0L613.0 351.0L613.0 198.0C613.0 196.89543 613.89545 196.0 615.0 196.0L618.0 196.0C619.10455 196.0 620.0 196.89543 620.0 198.0Z" fill-rule="nonzero"/><path stroke="#000000" stroke-width="2.0" stroke-linecap="butt" stroke-opacity="0.0" clip-path="url(#id_0)" d="M646.0 351.0L639.0 351.0L639.0 340.0C639.0 338.89542 639.89545 338.0 641.0 338.0L644.0 338.0C645.10455 338.0 646.0 338.89542 646.0 340.0Z" fill-rule="nonzero"/><path fill="#4285f4" clip-path="url(#id_0)" d="M646.0 351.0L639.0 351.0L639.0 340.0C639.0 338.89542 639.89545 338.0 641.0 338.0L644.0 338.0C645.10455 338.0 646.0 338.89542 646.0 340.0Z" fill-rule="nonzero"/><path stroke="#000000" stroke-width="2.0" stroke-linecap="butt" stroke-opacity="0.0" clip-path="url(#id_0)" d="M106.0 351.0L99.0 351.0L99.0 337.0C99.0 335.89542 99.89543 335.0 101.0 335.0L104.0 335.0C105.10457 335.0 106.0 335.89542 106.0 337.0Z" fill-rule="nonzero"/><path fill="#ea4335" clip-path="url(#id_0)" d="M106.0 351.0L99.0 351.0L99.0 337.0C99.0 335.89542 99.89543 335.0 101.0 335.0L104.0 335.0C105.10457 335.0 106.0 335.89542 106.0 337.0Z" fill-rule="nonzero"/><path stroke="#000000" stroke-width="2.0" stroke-linecap="butt" stroke-opacity="0.0" clip-path="url(#id_0)" d="M132.0 351.0L125.0 351.0L125.0 325.0C125.0 323.89542 125.89543 323.0 127.0 323.0L130.0 323.0C131.10457 323.0 132.0 323.89542 132.0 325.0Z" fill-rule="nonzero"/><path fill="#ea4335" clip-path="url(#id_0)" d="M132.0 351.0L125.0 351.0L125.0 325.0C125.0 323.89542 125.89543 323.0 127.0 323.0L130.0 323.0C131.10457 323.0 132.0 323.89542 132.0 325.0Z" fill-rule="nonzero"/><path stroke="#000000" stroke-width="2.0" stroke-linecap="butt" stroke-opacity="0.0" clip-path="url(#id_0)" d="M158.0 351.0L151.0 351.0L151.0 315.0C151.0 313.89542 151.89543 313.0 153.0 313.0L156.0 313.0C157.10457 313.0 158.0 313.89542 158.0 315.0Z" fill-rule="nonzero"/><path fill="#ea4335" clip-path="url(#id_0)" d="M158.0 351.0L151.0 351.0L151.0 315.0C151.0 313.89542 151.89543 313.0 153.0 313.0L156.0 313.0C157.10457 313.0 158.0 313.89542 158.0 315.0Z" fill-rule="nonzero"/><path stroke="#000000" stroke-width="2.0" stroke-linecap="butt" stroke-opacity="0.0" clip-path="url(#id_0)" d="M184.0 351.0L177.0 351.0L177.0 334.0C177.0 332.89542 177.89543 332.0 179.0 332.0L182.0 332.0C183.10457 332.0 184.0 332.89542 184.0 334.0Z" fill-rule="nonzero"/><path fill="#ea4335" clip-path="url(#id_0)" d="M184.0 351.0L177.0 351.0L177.0 334.0C177.0 332.89542 177.89543 332.0 179.0 332.0L182.0 332.0C183.10457 332.0 184.0 332.89542 184.0 334.0Z" fill-rule="nonzero"/><path stroke="#000000" stroke-width="2.0" stroke-linecap="butt" stroke-opacity="0.0" clip-path="url(#id_0)" d="M210.0 351.0L203.0 351.0L203.0 265.0C203.0 263.89542 203.89543 263.0 205.0 263.0L208.0 263.0C209.10457 263.0 210.0 263.89542 210.0 265.0Z" fill-rule="nonzero"/><path fill="#ea4335" clip-path="url(#id_0)" d="M210.0 351.0L203.0 351.0L203.0 265.0C203.0 263.89542 203.89543 263.0 205.0 263.0L208.0 263.0C209.10457 263.0 210.0 263.89542 210.0 265.0Z" fill-rule="nonzero"/><path stroke="#000000" stroke-width="2.0" stroke-linecap="butt" stroke-opacity="0.0" clip-path="url(#id_0)" d="M237.0 351.0L230.0 351.0L230.0 349.0C230.0 347.89542 230.89543 347.0 232.0 347.0L235.0 347.0C236.10457 347.0 237.0 347.89542 237.0 349.0Z" fill-rule="nonzero"/><path fill="#ea4335" clip-path="url(#id_0)" d="M237.0 351.0L230.0 351.0L230.0 349.0C230.0 347.89542 230.89543 347.0 232.0 347.0L235.0 347.0C236.10457 347.0 237.0 347.89542 237.0 349.0Z" fill-rule="nonzero"/><path stroke="#000000" stroke-width="2.0" stroke-linecap="butt" stroke-opacity="0.0" clip-path="url(#id_0)" d="M263.0 351.0L256.0 351.0L256.0 247.0C256.0 245.89543 256.89542 245.0 258.0 245.0L261.0 245.0C262.10458 245.0 263.0 245.89543 263.0 247.0Z" fill-rule="nonzero"/><path fill="#ea4335" clip-path="url(#id_0)" d="M263.0 351.0L256.0 351.0L256.0 247.0C256.0 245.89543 256.89542 245.0 258.0 245.0L261.0 245.0C262.10458 245.0 263.0 245.89543 263.0 247.0Z" fill-rule="nonzero"/><path stroke="#000000" stroke-width="2.0" stroke-linecap="butt" stroke-opacity="0.0" clip-path="url(#id_0)" d="M289.0 351.0L282.0 351.0L282.0 254.0C282.0 252.89543 282.89542 252.0 284.0 252.0L287.0 252.0C288.10458 252.0 289.0 252.89543 289.0 254.0Z" fill-rule="nonzero"/><path fill="#ea4335" clip-path="url(#id_0)" d="M289.0 351.0L282.0 351.0L282.0 254.0C282.0 252.89543 282.89542 252.0 284.0 252.0L287.0 252.0C288.10458 252.0 289.0 252.89543 289.0 254.0Z" fill-rule="nonzero"/><path stroke="#000000" stroke-width="2.0" stroke-linecap="butt" stroke-opacity="0.0" clip-path="url(#id_0)" d="M315.0 351.0L308.0 351.0L308.0 211.0C308.0 209.89543 308.89542 209.0 310.0 209.0L313.0 209.0C314.10458 209.0 315.0 209.89543 315.0 211.0Z" fill-rule="nonzero"/><path fill="#ea4335" clip-path="url(#id_0)" d="M315.0 351.0L308.0 351.0L308.0 211.0C308.0 209.89543 308.89542 209.0 310.0 209.0L313.0 209.0C314.10458 209.0 315.0 209.89543 315.0 211.0Z" fill-rule="nonzero"/><path stroke="#000000" stroke-width="2.0" stroke-linecap="butt" stroke-opacity="0.0" clip-path="url(#id_0)" d="M341.0 351.0L334.0 351.0L334.0 320.0C334.0 318.89542 334.89542 318.0 336.0 318.0L339.0 318.0C340.10458 318.0 341.0 318.89542 341.0 320.0Z" fill-rule="nonzero"/><path fill="#ea4335" clip-path="url(#id_0)" d="M341.0 351.0L334.0 351.0L334.0 320.0C334.0 318.89542 334.89542 318.0 336.0 318.0L339.0 318.0C340.10458 318.0 341.0 318.89542 341.0 320.0Z" fill-rule="nonzero"/><path stroke="#000000" stroke-width="2.0" stroke-linecap="butt" stroke-opacity="0.0" clip-path="url(#id_0)" d="M367.0 351.0L360.0 351.0L360.0 330.0C360.0 328.89542 360.89542 328.0 362.0 328.0L365.0 328.0C366.10458 328.0 367.0 328.89542 367.0 330.0Z" fill-rule="nonzero"/><path fill="#ea4335" clip-path="url(#id_0)" d="M367.0 351.0L360.0 351.0L360.0 330.0C360.0 328.89542 360.89542 328.0 362.0 328.0L365.0 328.0C366.10458 328.0 367.0 328.89542 367.0 330.0Z" fill-rule="nonzero"/><path stroke="#000000" stroke-width="2.0" stroke-linecap="butt" stroke-opacity="0.0" clip-path="url(#id_0)" d="M394.0 351.0L387.0 351.0L387.0 337.0C387.0 335.89542 387.89542 335.0 389.0 335.0L392.0 335.0C393.10458 335.0 394.0 335.89542 394.0 337.0Z" fill-rule="nonzero"/><path fill="#ea4335" clip-path="url(#id_0)" d="M394.0 351.0L387.0 351.0L387.0 337.0C387.0 335.89542 387.89542 335.0 389.0 335.0L392.0 335.0C393.10458 335.0 394.0 335.89542 394.0 337.0Z" fill-rule="nonzero"/><path stroke="#000000" stroke-width="2.0" stroke-linecap="butt" stroke-opacity="0.0" clip-path="url(#id_0)" d="M420.0 351.0L413.0 351.0L413.0 336.0C413.0 334.89542 413.89542 334.0 415.0 334.0L418.0 334.0C419.10458 334.0 420.0 334.89542 420.0 336.0Z" fill-rule="nonzero"/><path fill="#ea4335" clip-path="url(#id_0)" d="M420.0 351.0L413.0 351.0L413.0 336.0C413.0 334.89542 413.89542 334.0 415.0 334.0L418.0 334.0C419.10458 334.0 420.0 334.89542 420.0 336.0Z" fill-rule="nonzero"/><path stroke="#000000" stroke-width="2.0" stroke-linecap="butt" stroke-opacity="0.0" clip-path="url(#id_0)" d="M446.0 351.0L439.0 351.0L439.0 346.0C439.0 344.89542 439.89542 344.0 441.0 344.0L444.0 344.0C445.10458 344.0 446.0 344.89542 446.0 346.0Z" fill-rule="nonzero"/><path fill="#ea4335" clip-path="url(#id_0)" d="M446.0 351.0L439.0 351.0L439.0 346.0C439.0 344.89542 439.89542 344.0 441.0 344.0L444.0 344.0C445.10458 344.0 446.0 344.89542 446.0 346.0Z" fill-rule="nonzero"/><path stroke="#000000" stroke-width="2.0" stroke-linecap="butt" stroke-opacity="0.0" clip-path="url(#id_0)" d="M472.0 351.0L465.0 351.0L465.0 351.0C465.0 351.0 465.0 351.0 465.0 351.0L472.0 351.0C472.0 351.0 472.0 351.0 472.0 351.0Z" fill-rule="nonzero"/><path fill="#ea4335" clip-path="url(#id_0)" d="M472.0 351.0L465.0 351.0L465.0 351.0C465.0 351.0 465.0 351.0 465.0 351.0L472.0 351.0C472.0 351.0 472.0 351.0 472.0 351.0Z" fill-rule="nonzero"/><path stroke="#000000" stroke-width="2.0" stroke-linecap="butt" stroke-opacity="0.0" clip-path="url(#id_0)" d="M498.0 351.0L491.0 351.0L491.0 341.0C491.0 339.89542 491.89542 339.0 493.0 339.0L496.0 339.0C497.10458 339.0 498.0 339.89542 498.0 341.0Z" fill-rule="nonzero"/><path fill="#ea4335" clip-path="url(#id_0)" d="M498.0 351.0L491.0 351.0L491.0 341.0C491.0 339.89542 491.89542 339.0 493.0 339.0L496.0 339.0C497.10458 339.0 498.0 339.89542 498.0 341.0Z" fill-rule="nonzero"/><path stroke="#000000" stroke-width="2.0" stroke-linecap="butt" stroke-opacity="0.0" clip-path="url(#id_0)" d="M524.0 351.0L517.0 351.0L517.0 289.0C517.0 287.89542 517.89545 287.0 519.0 287.0L522.0 287.0C523.10455 287.0 524.0 287.89542 524.0 289.0Z" fill-rule="nonzero"/><path fill="#ea4335" clip-path="url(#id_0)" d="M524.0 351.0L517.0 351.0L517.0 289.0C517.0 287.89542 517.89545 287.0 519.0 287.0L522.0 287.0C523.10455 287.0 524.0 287.89542 524.0 289.0Z" fill-rule="nonzero"/><path stroke="#000000" stroke-width="2.0" stroke-linecap="butt" stroke-opacity="0.0" clip-path="url(#id_0)" d="M551.0 351.0L544.0 351.0L544.0 150.0C544.0 148.89543 544.89545 148.0 546.0 148.0L549.0 148.0C550.10455 148.0 551.0 148.89543 551.0 150.0Z" fill-rule="nonzero"/><path fill="#ea4335" clip-path="url(#id_0)" d="M551.0 351.0L544.0 351.0L544.0 150.0C544.0 148.89543 544.89545 148.0 546.0 148.0L549.0 148.0C550.10455 148.0 551.0 148.89543 551.0 150.0Z" fill-rule="nonzero"/><path stroke="#000000" stroke-width="2.0" stroke-linecap="butt" stroke-opacity="0.0" clip-path="url(#id_0)" d="M577.0 351.0L570.0 351.0L570.0 343.0C570.0 341.89542 570.89545 341.0 572.0 341.0L575.0 341.0C576.10455 341.0 577.0 341.89542 577.0 343.0Z" fill-rule="nonzero"/><path fill="#ea4335" clip-path="url(#id_0)" d="M577.0 351.0L570.0 351.0L570.0 343.0C570.0 341.89542 570.89545 341.0 572.0 341.0L575.0 341.0C576.10455 341.0 577.0 341.89542 577.0 343.0Z" fill-rule="nonzero"/><path stroke="#000000" stroke-width="2.0" stroke-linecap="butt" stroke-opacity="0.0" clip-path="url(#id_0)" d="M603.0 351.0L596.0 351.0L596.0 339.0C596.0 337.89542 596.89545 337.0 598.0 337.0L601.0 337.0C602.10455 337.0 603.0 337.89542 603.0 339.0Z" fill-rule="nonzero"/><path fill="#ea4335" clip-path="url(#id_0)" d="M603.0 351.0L596.0 351.0L596.0 339.0C596.0 337.89542 596.89545 337.0 598.0 337.0L601.0 337.0C602.10455 337.0 603.0 337.89542 603.0 339.0Z" fill-rule="nonzero"/><path stroke="#000000" stroke-width="2.0" stroke-linecap="butt" stroke-opacity="0.0" clip-path="url(#id_0)" d="M629.0 351.0L622.0 351.0L622.0 240.0C622.0 238.89543 622.89545 238.0 624.0 238.0L627.0 238.0C628.10455 238.0 629.0 238.89543 629.0 240.0Z" fill-rule="nonzero"/><path fill="#ea4335" clip-path="url(#id_0)" d="M629.0 351.0L622.0 351.0L622.0 240.0C622.0 238.89543 622.89545 238.0 624.0 238.0L627.0 238.0C628.10455 238.0 629.0 238.89543 629.0 240.0Z" fill-rule="nonzero"/><path stroke="#000000" stroke-width="2.0" stroke-linecap="butt" stroke-opacity="0.0" clip-path="url(#id_0)" d="M655.0 351.0L648.0 351.0L648.0 343.0C648.0 341.89542 648.89545 341.0 650.0 341.0L653.0 341.0C654.10455 341.0 655.0 341.89542 655.0 343.0Z" fill-rule="nonzero"/><path fill="#ea4335" clip-path="url(#id_0)" d="M655.0 351.0L648.0 351.0L648.0 343.0C648.0 341.89542 648.89545 341.0 650.0 341.0L653.0 341.0C654.10455 341.0 655.0 341.89542 655.0 343.0Z" fill-rule="nonzero"/><path fill="#000000" d="M340.60938 399.8L340.60938 392.22186L337.78125 392.22186L337.78125 391.20624L344.59375 391.20624L344.59375 392.22186L341.75 392.22186L341.75 399.8L340.60938 399.8ZM345.42188 399.8L345.42188 391.20624L348.67188 391.20624Q349.51562 391.20624 349.96875 391.28436Q350.60938 391.39374 351.03125 391.6906Q351.46875 391.9875 351.71875 392.51874Q351.98438 393.05 351.98438 393.6906Q351.98438 394.78436 351.28125 395.55Q350.59375 396.3 348.76562 396.3L346.5625 396.3L346.5625 399.8L345.42188 399.8ZM346.5625 395.3L348.78125 395.3Q349.89062 395.3 350.34375 394.89374Q350.8125 394.47186 350.8125 393.72186Q350.8125 393.1906 350.53125 392.8156Q350.26562 392.425 349.82812 392.3Q349.53125 392.22186 348.76562 392.22186L346.5625 392.22186L346.5625 395.3ZM359.5625 396.78436L360.6875 397.08124Q360.32812 398.47186 359.40625 399.20624Q358.48438 399.9406 357.14062 399.9406Q355.75 399.9406 354.875 399.3781Q354.0 398.8156 353.54688 397.7531Q353.09375 396.675 353.09375 395.4406Q353.09375 394.09686 353.60938 393.09686Q354.125 392.09686 355.0625 391.58124Q356.01562 391.0656 357.15625 391.0656Q358.4375 391.0656 359.3125 391.72186Q360.20312 392.3781 360.54688 393.5656L359.42188 393.83124Q359.125 392.89374 358.54688 392.47186Q357.98438 392.03436 357.125 392.03436Q356.14062 392.03436 355.46875 392.51874Q354.8125 392.9875 354.53125 393.78436Q354.26562 394.58124 354.26562 395.4406Q354.26562 396.53436 354.57812 397.34686Q354.90625 398.15936 355.57812 398.5656Q356.25 398.97186 357.04688 398.97186Q358.0 398.97186 358.65625 398.425Q359.32812 397.8781 359.5625 396.78436ZM361.875 397.22186L361.875 396.15936L365.125 396.15936L365.125 397.22186L361.875 397.22186ZM366.46875 399.8L366.46875 391.20624L367.59375 391.20624L367.59375 394.7375L372.0625 394.7375L372.0625 391.20624L373.20312 391.20624L373.20312 399.8L372.0625 399.8L372.0625 395.7531L367.59375 395.7531L367.59375 399.8L366.46875 399.8ZM382.26562 402.1906L382.26562 399.14374Q382.01562 399.4875 381.5625 399.72186Q381.125 399.9406 380.625 399.9406Q379.51562 399.9406 378.71875 399.0656Q377.92188 398.175 377.92188 396.6281Q377.92188 395.6906 378.25 394.95624Q378.57812 394.20624 379.1875 393.83124Q379.8125 393.4406 380.54688 393.4406Q381.70312 393.4406 382.35938 394.40936L382.35938 393.58124L383.3125 393.58124L383.3125 402.1906L382.26562 402.1906ZM379.0 396.675Q379.0 397.8781 379.5 398.47186Q380.01562 399.0656 380.71875 399.0656Q381.39062 399.0656 381.875 398.5031Q382.35938 397.925 382.35938 396.76874Q382.35938 395.51874 381.84375 394.89374Q381.34375 394.26874 380.64062 394.26874Q379.96875 394.26874 379.48438 394.8625Q379.0 395.4406 379.0 396.675ZM389.375 399.8L389.375 398.8781Q388.64062 399.9406 387.39062 399.9406Q386.84375 399.9406 386.35938 399.7375Q385.89062 399.51874 385.65625 399.20624Q385.42188 398.8781 385.32812 398.40936Q385.26562 398.1125 385.26562 397.425L385.26562 393.58124L386.32812 393.58124L386.32812 397.03436Q386.32812 397.84686 386.39062 398.14374Q386.48438 398.55 386.79688 398.8Q387.125 399.03436 387.60938 399.03436Q388.07812 399.03436 388.48438 398.8Q388.90625 398.55 389.07812 398.1281Q389.26562 397.70624 389.26562 396.90936L389.26562 393.58124L390.3125 393.58124L390.3125 399.8L389.375 399.8ZM396.54688 397.8L397.64062 397.925Q397.39062 398.8781 396.6875 399.40936Q395.98438 399.9406 394.90625 399.9406Q393.54688 399.9406 392.73438 399.09686Q391.9375 398.2531 391.9375 396.7375Q391.9375 395.175 392.75 394.3156Q393.5625 393.4406 394.84375 393.4406Q396.09375 393.4406 396.875 394.28436Q397.67188 395.1281 397.67188 396.675Q397.67188 396.76874 397.67188 396.95624L393.03125 396.95624Q393.09375 397.9875 393.60938 398.53436Q394.125 399.0656 394.90625 399.0656Q395.48438 399.0656 395.89062 398.76874Q396.3125 398.45624 396.54688 397.8ZM393.09375 396.09686L396.5625 396.09686Q396.5 395.3 396.17188 394.90936Q395.65625 394.3 394.85938 394.3Q394.125 394.3 393.625 394.78436Q393.14062 395.26874 393.09375 396.09686ZM399.28125 399.8L399.28125 393.58124L400.23438 393.58124L400.23438 394.51874Q400.59375 393.8625 400.89062 393.65936Q401.20312 393.4406 401.57812 393.4406Q402.10938 393.4406 402.65625 393.76874L402.29688 394.7531Q401.90625 394.51874 401.53125 394.51874Q401.17188 394.51874 400.89062 394.7375Q400.625 394.9406 400.51562 395.3156Q400.32812 395.8781 400.32812 396.53436L400.32812 399.8L399.28125 399.8ZM403.25 402.1906L403.125 401.20624Q403.46875 401.3 403.73438 401.3Q404.07812 401.3 404.28125 401.175Q404.5 401.0656 404.64062 400.8625Q404.73438 400.6906 404.96875 400.0656Q404.98438 399.9875 405.0625 399.8156L402.6875 393.58124L403.82812 393.58124L405.125 397.175Q405.375 397.8625 405.57812 398.6281Q405.76562 397.89374 406.01562 397.20624L407.34375 393.58124L408.39062 393.58124L406.03125 399.90936Q405.64062 400.925 405.4375 401.3156Q405.15625 401.84686 404.78125 402.08124Q404.42188 402.33124 403.92188 402.33124Q403.625 402.33124 403.25 402.1906Z" fill-rule="nonzero"/><path fill="#000000" d="M32.19999 277.1802L23.606237 277.1802L23.606237 270.97708L24.621862 270.97708L24.621862 276.03958L27.246862 276.03958L27.246862 271.28958L28.262487 271.28958L28.262487 276.03958L31.184362 276.03958L31.184362 270.77396L32.19999 270.77396L32.19999 277.1802ZM32.19999 270.03958L28.965612 267.77396L25.981237 269.8677L25.981237 268.5552L27.434362 267.60208Q27.856237 267.33646 28.137487 267.16458Q27.746862 266.91458 27.449987 266.69583L25.981237 265.64896L25.981237 264.38333L28.903112 266.53958L32.19999 264.22708L32.19999 265.50833L30.262487 266.78958L29.746862 267.13333L32.19999 268.77396L32.19999 270.03958ZM30.199987 260.08646L30.324987 258.9927Q31.278112 259.2427 31.809362 259.94583Q32.340614 260.64896 32.340614 261.72708Q32.340614 263.08646 31.496862 263.89896Q30.653112 264.69583 29.137487 264.69583Q27.574987 264.69583 26.715612 263.88333Q25.840612 263.07083 25.840612 261.78958Q25.840612 260.53958 26.684362 259.75833Q27.528112 258.96146 29.074987 258.96146Q29.168737 258.96146 29.356237 258.96146L29.356237 263.60208Q30.387487 263.53958 30.934362 263.02396Q31.465612 262.50833 31.465612 261.72708Q31.465612 261.14896 31.168737 260.7427Q30.856237 260.32083 30.199987 260.08646ZM28.496862 263.53958L28.496862 260.07083Q27.699987 260.13333 27.309362 260.46146Q26.699987 260.97708 26.699987 261.77396Q26.699987 262.50833 27.184362 263.00833Q27.668737 263.4927 28.496862 263.53958ZM29.918737 253.27396L30.059362 252.2427Q31.121862 252.41458 31.731237 253.1177Q32.340614 253.82083 32.340614 254.83646Q32.340614 256.1177 31.512487 256.89896Q30.668737 257.66458 29.106237 257.66458Q28.106237 257.66458 27.356237 257.33646Q26.590612 256.9927 26.215612 256.32083Q25.840612 255.63333 25.840612 254.82083Q25.840612 253.82083 26.356237 253.1802Q26.856237 252.52396 27.809362 252.33646L27.965612 253.3677Q27.340612 253.50833 27.028112 253.88333Q26.699987 254.25833 26.699987 254.78958Q26.699987 255.58646 27.278112 256.08646Q27.840612 256.58646 29.074987 256.58646Q30.340612 256.58646 30.903112 256.10208Q31.465612 255.6177 31.465612 254.85208Q31.465612 254.22708 31.090612 253.82083Q30.715612 253.39896 29.918737 253.27396ZM32.19999 247.25833L31.278112 247.25833Q32.340614 247.9927 32.340614 249.2427Q32.340614 249.78958 32.13749 250.27396Q31.918737 250.7427 31.606237 250.97708Q31.278112 251.21146 30.809362 251.3052Q30.512487 251.3677 29.824987 251.3677L25.981237 251.3677L25.981237 250.3052L29.434362 250.3052Q30.246862 250.3052 30.543737 250.2427Q30.949987 250.14896 31.199987 249.83646Q31.434362 249.50833 31.434362 249.02396Q31.434362 248.5552 31.199987 248.14896Q30.949987 247.72708 30.528112 247.5552Q30.106237 247.3677 29.309362 247.3677L25.981237 247.3677L25.981237 246.32083L32.19999 246.32083L32.19999 247.25833ZM31.262487 242.03958L32.184364 241.88333Q32.278114 242.33646 32.278114 242.6802Q32.278114 243.25833 32.10624 243.57083Q31.918737 243.88333 31.621862 244.02396Q31.324987 244.14896 30.371862 244.14896L26.793737 244.14896L26.793737 244.91458L25.981237 244.91458L25.981237 244.14896L24.434362 244.14896L23.809362 243.10208L25.981237 243.10208L25.981237 242.03958L26.793737 242.03958L26.793737 243.10208L30.434362 243.10208Q30.887487 243.10208 31.012487 243.0552Q31.137487 242.9927 31.215612 242.8677Q31.293737 242.7427 31.293737 242.50833Q31.293737 242.32083 31.262487 242.03958ZM24.824987 241.33646L23.606237 241.33646L23.606237 240.27396L24.824987 240.27396L24.824987 241.33646ZM32.19999 241.33646L25.981237 241.33646L25.981237 240.27396L32.19999 240.27396L32.19999 241.33646ZM29.090612 238.72708Q27.356237 238.72708 26.528112 237.77396Q25.840612 236.97708 25.840612 235.82083Q25.840612 234.53958 26.684362 233.72708Q27.512487 232.89896 28.996862 232.89896Q30.199987 232.89896 30.887487 233.25833Q31.574987 233.6177 31.965612 234.32083Q32.340614 235.00833 32.340614 235.82083Q32.340614 237.1177 31.512487 237.9302Q30.668737 238.72708 29.090612 238.72708ZM29.090612 237.64896Q30.278112 237.64896 30.871862 237.13333Q31.465612 236.60208 31.465612 235.82083Q31.465612 235.02396 30.871862 234.50833Q30.278112 233.9927 29.059362 233.9927Q27.903112 233.9927 27.309362 234.52396Q26.715612 235.03958 26.715612 235.82083Q26.715612 236.60208 27.309362 237.13333Q27.887487 237.64896 29.090612 237.64896ZM32.19999 231.33646L25.981237 231.33646L25.981237 230.39896L26.856237 230.39896Q25.840612 229.71146 25.840612 228.41458Q25.840612 227.85208 26.043737 227.38333Q26.246862 226.89896 26.574987 226.66458Q26.903112 226.4302 27.340612 226.33646Q27.637487 226.28958 28.371862 226.28958L32.19999 226.28958L32.19999 227.33646L28.418737 227.33646Q27.762487 227.33646 27.449987 227.46146Q27.137487 227.58646 26.949987 227.89896Q26.746862 228.21146 26.746862 228.63333Q26.746862 229.3052 27.184362 229.8052Q27.606237 230.28958 28.793737 230.28958L32.19999 230.28958L32.19999 231.33646ZM31.262487 219.03958L32.184364 218.88333Q32.278114 219.33646 32.278114 219.6802Q32.278114 220.25833 32.10624 220.57083Q31.918737 220.88333 31.621862 221.02396Q31.324987 221.14896 30.371862 221.14896L26.793737 221.14896L26.793737 221.91458L25.981237 221.91458L25.981237 221.14896L24.434362 221.14896L23.809362 220.10208L25.981237 220.10208L25.981237 219.03958L26.793737 219.03958L26.793737 220.10208L30.434362 220.10208Q30.887487 220.10208 31.012487 220.0552Q31.137487 219.9927 31.215612 219.8677Q31.293737 219.7427 31.293737 219.50833Q31.293737 219.32083 31.262487 219.03958ZM24.824987 218.33646L23.606237 218.33646L23.606237 217.27396L24.824987 217.27396L24.824987 218.33646ZM32.19999 218.33646L25.981237 218.33646L25.981237 217.27396L32.19999 217.27396L32.19999 218.33646ZM32.19999 215.33646L25.981237 215.33646L25.981237 214.39896L26.856237 214.39896Q26.387487 214.10208 26.121862 213.6177Q25.840612 213.13333 25.840612 212.50833Q25.840612 211.82083 26.121862 211.38333Q26.403112 210.9302 26.918737 210.75833Q25.840612 210.00833 25.840612 208.83646Q25.840612 207.89896 26.356237 207.41458Q26.856237 206.91458 27.934362 206.91458L32.19999 206.91458L32.19999 207.96146L28.278112 207.96146Q27.653112 207.96146 27.371862 208.07083Q27.090612 208.16458 26.918737 208.4302Q26.746862 208.69583 26.746862 209.07083Q26.746862 209.72708 27.184362 210.16458Q27.621862 210.58646 28.590612 210.58646L32.19999 210.58646L32.19999 211.64896L28.153112 211.64896Q27.449987 211.64896 27.106237 211.91458Q26.746862 212.16458 26.746862 212.7427Q26.746862 213.19583 26.981237 213.57083Q27.215612 213.94583 27.668737 214.1177Q28.121862 214.28958 28.965612 214.28958L32.19999 214.28958L32.19999 215.33646ZM30.199987 200.08646L30.324987 198.9927Q31.278112 199.2427 31.809362 199.94583Q32.340614 200.64896 32.340614 201.72708Q32.340614 203.08646 31.496862 203.89896Q30.653112 204.69583 29.137487 204.69583Q27.574987 204.69583 26.715612 203.88333Q25.840612 203.07083 25.840612 201.78958Q25.840612 200.53958 26.684362 199.75833Q27.528112 198.96146 29.074987 198.96146Q29.168737 198.96146 29.356237 198.96146L29.356237 203.60208Q30.387487 203.53958 30.934362 203.02396Q31.465612 202.50833 31.465612 201.72708Q31.465612 201.14896 31.168737 200.7427Q30.856237 200.32083 30.199987 200.08646ZM28.496862 203.53958L28.496862 200.07083Q27.699987 200.13333 27.309362 200.46146Q26.699987 200.97708 26.699987 201.77396Q26.699987 202.50833 27.184362 203.00833Q27.668737 203.4927 28.496862 203.53958ZM34.73124 192.32083Q33.621864 193.19583 32.153114 193.8052Q30.668737 194.39896 29.090612 194.39896Q27.699987 194.39896 26.418737 193.96146Q24.934362 193.4302 23.465612 192.32083L23.465612 191.57083Q24.684362 192.27396 25.199987 192.50833Q26.012487 192.8677 26.887487 193.07083Q27.981237 193.32083 29.090612 193.32083Q31.918737 193.32083 34.73124 191.57083L34.73124 192.32083ZM30.340612 190.75833L30.184362 189.72708Q30.809362 189.63333 31.137487 189.2427Q31.465612 188.83646 31.465612 188.10208Q31.465612 187.38333 31.184362 187.03958Q30.887487 186.6802 30.481237 186.6802Q30.121862 186.6802 29.918737 186.9927Q29.778112 187.21146 29.559362 188.07083Q29.262487 189.22708 29.059362 189.6802Q28.840612 190.1177 28.465612 190.35208Q28.090612 190.58646 27.621862 190.58646Q27.215612 190.58646 26.856237 190.39896Q26.496862 190.21146 26.262487 189.88333Q26.090612 189.63333 25.965612 189.21146Q25.840612 188.78958 25.840612 188.28958Q25.840612 187.57083 26.059362 187.02396Q26.262487 186.46146 26.621862 186.19583Q26.981237 185.9302 27.574987 185.83646L27.715612 186.8677Q27.246862 186.9302 26.981237 187.27396Q26.699987 187.60208 26.699987 188.22708Q26.699987 188.94583 26.949987 189.25833Q27.184362 189.57083 27.512487 189.57083Q27.715612 189.57083 27.871862 189.44583Q28.043737 189.3052 28.153112 189.03958Q28.215612 188.88333 28.418737 188.10208Q28.731237 186.97708 28.918737 186.53958Q29.106237 186.10208 29.465612 185.85208Q29.824987 185.60208 30.371862 185.60208Q30.903112 185.60208 31.371862 185.91458Q31.824987 186.21146 32.090614 186.78958Q32.340614 187.3677 32.340614 188.10208Q32.340614 189.32083 31.840612 189.96146Q31.324987 190.58646 30.340612 190.75833ZM34.73124 182.64896L34.73124 183.39896Q31.918737 181.64896 29.090612 181.64896Q27.996862 181.64896 26.903112 181.89896Q26.028112 182.10208 25.215612 182.46146Q24.699987 182.69583 23.465612 183.39896L23.465612 182.64896Q24.934362 181.5552 26.418737 181.02396Q27.699987 180.57083 29.090612 180.57083Q30.668737 180.57083 32.153114 181.1802Q33.621864 181.78958 34.73124 182.64896Z" fill-rule="nonzero"/><path fill="#000000" d="M67.7 350.5656Q67.7 349.03436 68.0125 348.1125Q68.325 347.175 68.93437 346.675Q69.55937 346.175 70.49687 346.175Q71.18437 346.175 71.7 346.45624Q72.23125 346.7375 72.575 347.26874Q72.91875 347.78436 73.10625 348.53436Q73.29375 349.28436 73.29375 350.5656Q73.29375 352.08124 72.98125 353.0031Q72.68437 353.925 72.05937 354.4406Q71.45 354.9406 70.49687 354.9406Q69.2625 354.9406 68.54375 354.05Q67.7 352.9875 67.7 350.5656ZM68.77812 350.5656Q68.77812 352.675 69.27812 353.3781Q69.77812 354.08124 70.49687 354.08124Q71.23125 354.08124 71.71562 353.3781Q72.21562 352.675 72.21562 350.5656Q72.21562 348.4406 71.71562 347.7531Q71.23125 347.05 70.48125 347.05Q69.7625 347.05 69.325 347.65936Q68.77812 348.4406 68.77812 350.5656Z" fill-rule="nonzero"/><path fill="#000000" d="M64.66875 290.71667L63.621876 290.71667L63.621876 283.99792Q63.23125 284.3573 62.60625 284.7323Q61.996876 285.09167 61.5125 285.26355L61.5125 284.24792Q62.3875 283.82605 63.04375 283.24792Q63.715626 282.65417 63.996876 282.09167L64.66875 282.09167L64.66875 290.71667ZM67.7 286.4823Q67.7 284.95105 68.0125 284.02917Q68.325 283.09167 68.93437 282.59167Q69.55937 282.09167 70.49687 282.09167Q71.18437 282.09167 71.7 282.37292Q72.23125 282.65417 72.575 283.18542Q72.91875 283.70105 73.10625 284.45105Q73.29375 285.20105 73.29375 286.4823Q73.29375 287.99792 72.98125 288.9198Q72.68437 289.84167 72.05937 290.3573Q71.45 290.8573 70.49687 290.8573Q69.2625 290.8573 68.54375 289.96667Q67.7 288.90417 67.7 286.4823ZM68.77812 286.4823Q68.77812 288.59167 69.27812 289.2948Q69.77812 289.99792 70.49687 289.99792Q71.23125 289.99792 71.71562 289.2948Q72.21562 288.59167 72.21562 286.4823Q72.21562 284.3573 71.71562 283.6698Q71.23125 282.96667 70.48125 282.96667Q69.7625 282.96667 69.325 283.57605Q68.77812 284.3573 68.77812 286.4823Z" fill-rule="nonzero"/><path fill="#000000" d="M66.24687 225.6177L66.24687 226.63333L60.559376 226.63333Q60.559376 226.25833 60.684376 225.89896Q60.903126 225.32083 61.371876 224.75833Q61.85625 224.19583 62.7625 223.46146Q64.16875 222.3052 64.65312 221.63333Q65.15312 220.96146 65.15312 220.3677Q65.15312 219.7427 64.7 219.32083Q64.24687 218.88333 63.528126 218.88333Q62.7625 218.88333 62.309376 219.33646Q61.85625 219.78958 61.840626 220.60208L60.7625 220.4927Q60.871876 219.27396 61.590626 218.64896Q62.325 218.00833 63.559376 218.00833Q64.79375 218.00833 65.5125 218.69583Q66.23125 219.38333 66.23125 220.39896Q66.23125 220.91458 66.0125 221.41458Q65.80937 221.89896 65.30937 222.46146Q64.825 223.00833 63.7 223.96146Q62.746876 224.75833 62.465626 225.0552Q62.2 225.33646 62.028126 225.6177L66.24687 225.6177ZM67.7 222.39896Q67.7 220.8677 68.0125 219.94583Q68.325 219.00833 68.93437 218.50833Q69.55937 218.00833 70.49687 218.00833Q71.18437 218.00833 71.7 218.28958Q72.23125 218.57083 72.575 219.10208Q72.91875 219.6177 73.10625 220.3677Q73.29375 221.1177 73.29375 222.39896Q73.29375 223.91458 72.98125 224.83646Q72.68437 225.75833 72.05937 226.27396Q71.45 226.77396 70.49687 226.77396Q69.2625 226.77396 68.54375 225.88333Q67.7 224.82083 67.7 222.39896ZM68.77812 222.39896Q68.77812 224.50833 69.27812 225.21146Q69.77812 225.91458 70.49687 225.91458Q71.23125 225.91458 71.71562 225.21146Q72.21562 224.50833 72.21562 222.39896Q72.21562 220.27396 71.71562 219.58646Q71.23125 218.88333 70.48125 218.88333Q69.7625 218.88333 69.325 219.4927Q68.77812 220.27396 68.77812 222.39896Z" fill-rule="nonzero"/><path fill="#000000" d="M60.7 160.28438L61.7625 160.14375Q61.934376 161.03438 62.371876 161.44063Q62.809376 161.83125 63.434376 161.83125Q64.18437 161.83125 64.7 161.31563Q65.21562 160.8 65.21562 160.03438Q65.21562 159.31563 64.73125 158.84688Q64.2625 158.3625 63.528126 158.3625Q63.23125 158.3625 62.778126 158.4875L62.903126 157.55Q63.0125 157.56563 63.075 157.56563Q63.746876 157.56563 64.27812 157.22188Q64.825 156.8625 64.825 156.12813Q64.825 155.55 64.43437 155.175Q64.04375 154.78438 63.41875 154.78438Q62.809376 154.78438 62.3875 155.175Q61.98125 155.56563 61.871876 156.33125L60.809376 156.14375Q60.996876 155.09688 61.684376 154.51875Q62.371876 153.925 63.3875 153.925Q64.09062 153.925 64.68437 154.2375Q65.27812 154.53438 65.59062 155.05Q65.90312 155.56563 65.90312 156.15938Q65.90312 156.70625 65.60625 157.175Q65.30937 157.62813 64.73125 157.89375Q65.48125 158.06563 65.90312 158.62813Q66.325 159.175 66.325 160.01875Q66.325 161.14375 65.49687 161.925Q64.68437 162.70625 63.434376 162.70625Q62.309376 162.70625 61.559376 162.03438Q60.809376 161.34688 60.7 160.28438ZM67.7 158.31563Q67.7 156.78438 68.0125 155.8625Q68.325 154.925 68.93437 154.425Q69.55937 153.925 70.49687 153.925Q71.18437 153.925 71.7 154.20625Q72.23125 154.4875 72.575 155.01875Q72.91875 155.53438 73.10625 156.28438Q73.29375 157.03438 73.29375 158.31563Q73.29375 159.83125 72.98125 160.75313Q72.68437 161.675 72.05937 162.19063Q71.45 162.69063 70.49687 162.69063Q69.2625 162.69063 68.54375 161.8Q67.7 160.7375 67.7 158.31563ZM68.77812 158.31563Q68.77812 160.425 69.27812 161.12813Q69.77812 161.83125 70.49687 161.83125Q71.23125 161.83125 71.71562 161.12813Q72.21562 160.425 72.21562 158.31563Q72.21562 156.19063 71.71562 155.50313Q71.23125 154.8 70.48125 154.8Q69.7625 154.8 69.325 155.40938Q68.77812 156.19063 68.77812 158.31563Z" fill-rule="nonzero"/><path fill="#000000" d="M64.075 98.46667L64.075 96.40417L60.35625 96.40417L60.35625 95.43542L64.27812 89.87292L65.1375 89.87292L65.1375 95.43542L66.29375 95.43542L66.29375 96.40417L65.1375 96.40417L65.1375 98.46667L64.075 98.46667ZM64.075 95.43542L64.075 91.57604L61.3875 95.43542L64.075 95.43542ZM67.7 94.23229Q67.7 92.70104 68.0125 91.77917Q68.325 90.84167 68.93437 90.34167Q69.55937 89.84167 70.49687 89.84167Q71.18437 89.84167 71.7 90.12292Q72.23125 90.40417 72.575 90.93542Q72.91875 91.45104 73.10625 92.20104Q73.29375 92.95104 73.29375 94.23229Q73.29375 95.74792 72.98125 96.66979Q72.68437 97.59167 72.05937 98.10729Q71.45 98.60729 70.49687 98.60729Q69.2625 98.60729 68.54375 97.71667Q67.7 96.65417 67.7 94.23229ZM68.77812 94.23229Q68.77812 96.34167 69.27812 97.04479Q69.77812 97.74792 70.49687 97.74792Q71.23125 97.74792 71.71562 97.04479Q72.21562 96.34167 72.21562 94.23229Q72.21562 92.10729 71.71562 91.41979Q71.23125 90.71667 70.48125 90.71667Q69.7625 90.71667 69.325 91.32604Q68.77812 92.10729 68.77812 94.23229Z" fill-rule="nonzero"/><path fill="#000000" d="M98.824455 367.8L97.77758 367.8L97.77758 361.08124Q97.386955 361.4406 96.761955 361.8156Q96.15258 362.175 95.668205 362.34686L95.668205 361.33124Q96.543205 360.90936 97.199455 360.33124Q97.87133 359.7375 98.15258 359.175L98.824455 359.175L98.824455 367.8Z" fill-rule="nonzero"/><path fill="#000000" d="M126.55918 366.78436L126.55918 367.8L120.87168 367.8Q120.87168 367.425 120.99668 367.0656Q121.21543 366.4875 121.68418 365.925Q122.16856 365.3625 123.07481 364.6281Q124.48106 363.47186 124.96543 362.8Q125.46543 362.1281 125.46543 361.53436Q125.46543 360.90936 125.01231 360.4875Q124.55918 360.05 123.84043 360.05Q123.07481 360.05 122.62168 360.5031Q122.16856 360.95624 122.15293 361.76874L121.07481 361.65936Q121.18418 360.4406 121.90293 359.8156Q122.63731 359.175 123.87168 359.175Q125.10606 359.175 125.82481 359.8625Q126.54356 360.55 126.54356 361.5656Q126.54356 362.08124 126.32481 362.58124Q126.12168 363.0656 125.62168 363.6281Q125.13731 364.175 124.01231 365.1281Q123.05918 365.925 122.77793 366.22186Q122.51231 366.5031 122.34043 366.78436L126.55918 366.78436Z" fill-rule="nonzero"/><path fill="#000000" d="M147.1689 365.53436L148.2314 365.39374Q148.40327 366.28436 148.84077 366.6906Q149.27827 367.08124 149.90327 367.08124Q150.65327 367.08124 151.1689 366.5656Q151.68452 366.05 151.68452 365.28436Q151.68452 364.5656 151.20015 364.09686Q150.7314 363.6125 149.99702 363.6125Q149.70015 363.6125 149.24702 363.7375L149.37202 362.8Q149.4814 362.8156 149.5439 362.8156Q150.21577 362.8156 150.74702 362.47186Q151.2939 362.1125 151.2939 361.3781Q151.2939 360.8 150.90327 360.425Q150.51265 360.03436 149.88765 360.03436Q149.27827 360.03436 148.8564 360.425Q148.45015 360.8156 148.34077 361.58124L147.27827 361.39374Q147.46577 360.34686 148.15327 359.76874Q148.84077 359.175 149.8564 359.175Q150.55952 359.175 151.15327 359.4875Q151.74702 359.78436 152.05952 360.3Q152.37202 360.8156 152.37202 361.40936Q152.37202 361.95624 152.07515 362.425Q151.77827 362.8781 151.20015 363.14374Q151.95015 363.3156 152.37202 363.8781Q152.7939 364.425 152.7939 365.26874Q152.7939 366.39374 151.96577 367.175Q151.15327 367.95624 149.90327 367.95624Q148.77827 367.95624 148.02827 367.28436Q147.27827 366.59686 147.1689 365.53436Z" fill-rule="nonzero"/><path fill="#000000" d="M176.7005 367.8L176.7005 365.7375L172.98175 365.7375L172.98175 364.76874L176.90363 359.20624L177.763 359.20624L177.763 364.76874L178.91925 364.76874L178.91925 365.7375L177.763 365.7375L177.763 367.8L176.7005 367.8ZM176.7005 364.76874L176.7005 360.90936L174.013 364.76874L176.7005 364.76874Z" fill-rule="nonzero"/><path fill="#000000" d="M199.4821 365.55L200.59148 365.45624Q200.71648 366.26874 201.15398 366.675Q201.6071 367.08124 202.24773 367.08124Q202.99773 367.08124 203.52898 366.5031Q204.06023 365.925 204.06023 364.9875Q204.06023 364.08124 203.5446 363.5656Q203.0446 363.03436 202.21648 363.03436Q201.71648 363.03436 201.2946 363.26874Q200.88835 363.5031 200.65398 363.8625L199.6696 363.7375L200.49773 359.33124L204.77898 359.33124L204.77898 360.33124L201.34148 360.33124L200.88835 362.64374Q201.65398 362.09686 202.49773 362.09686Q203.62273 362.09686 204.38835 362.8781Q205.1696 363.65936 205.1696 364.89374Q205.1696 366.05 204.49773 366.90936Q203.6696 367.9406 202.24773 367.9406Q201.07585 367.9406 200.32585 367.28436Q199.59148 366.6281 199.4821 365.55Z" fill-rule="nonzero"/><path fill="#000000" d="M231.10745 361.3156L230.06058 361.39374Q229.91995 360.76874 229.66995 360.4875Q229.23245 360.03436 228.60745 360.03436Q228.10745 360.03436 227.71683 360.3156Q227.23245 360.6906 226.93558 361.39374Q226.65433 362.08124 226.6387 363.3625Q227.0137 362.78436 227.56058 362.5031Q228.12308 362.22186 228.73245 362.22186Q229.77933 362.22186 230.5137 363.0031Q231.2637 363.78436 231.2637 365.0031Q231.2637 365.8156 230.90433 366.51874Q230.56058 367.20624 229.9512 367.58124Q229.34183 367.9406 228.5762 367.9406Q227.24808 367.9406 226.41995 366.97186Q225.59183 366.0031 225.59183 363.78436Q225.59183 361.28436 226.5137 360.15936Q227.31058 359.175 228.66995 359.175Q229.68558 359.175 230.3262 359.7531Q230.98245 360.3156 231.10745 361.3156ZM226.81058 365.01874Q226.81058 365.5656 227.02933 366.0656Q227.2637 366.55 227.66995 366.8156Q228.09183 367.08124 228.56058 367.08124Q229.21683 367.08124 229.7012 366.55Q230.18558 366.0031 230.18558 365.08124Q230.18558 364.1906 229.7012 363.675Q229.23245 363.15936 228.5137 363.15936Q227.79495 363.15936 227.29495 363.675Q226.81058 364.1906 226.81058 365.01874Z" fill-rule="nonzero"/><path fill="#000000" d="M251.8578 360.33124L251.8578 359.3156L257.4203 359.3156L257.4203 360.14374Q256.6078 361.01874 255.7953 362.47186Q254.99843 363.90936 254.56093 365.4406Q254.2328 366.51874 254.15468 367.8L253.06093 367.8Q253.07655 366.78436 253.45155 365.34686Q253.84218 363.90936 254.5453 362.58124Q255.26405 361.2531 256.07654 360.33124L251.8578 360.33124Z" fill-rule="nonzero"/><path fill="#000000" d="M279.5769 363.14374Q278.92065 362.89374 278.59253 362.45624Q278.28003 362.0031 278.28003 361.39374Q278.28003 360.45624 278.9519 359.8156Q279.6394 359.175 280.74878 359.175Q281.87378 359.175 282.56128 359.83124Q283.24878 360.4875 283.24878 361.425Q283.24878 362.01874 282.93628 362.45624Q282.62378 362.89374 281.98315 363.14374Q282.78003 363.39374 283.18628 363.97186Q283.59253 364.55 283.59253 365.34686Q283.59253 366.4406 282.81128 367.1906Q282.04565 367.9406 280.7644 367.9406Q279.49878 367.9406 278.71753 367.1906Q277.93628 366.4406 277.93628 365.3156Q277.93628 364.47186 278.35815 363.90936Q278.79565 363.34686 279.5769 363.14374ZM279.35815 361.34686Q279.35815 361.95624 279.74878 362.34686Q280.15503 362.7375 280.78003 362.7375Q281.3894 362.7375 281.78003 362.3625Q282.17065 361.97186 282.17065 361.40936Q282.17065 360.83124 281.7644 360.4406Q281.35815 360.03436 280.7644 360.03436Q280.15503 360.03436 279.74878 360.425Q279.35815 360.8156 279.35815 361.34686ZM279.03003 365.3156Q279.03003 365.76874 279.23315 366.1906Q279.4519 366.6125 279.87378 366.84686Q280.29565 367.08124 280.78003 367.08124Q281.53003 367.08124 282.0144 366.59686Q282.5144 366.1125 282.5144 365.3625Q282.5144 364.59686 282.0144 364.09686Q281.5144 363.59686 280.74878 363.59686Q279.99878 363.59686 279.5144 364.09686Q279.03003 364.58124 279.03003 365.3156Z" fill-rule="nonzero"/><path fill="#000000" d="M304.26474 365.8156L305.28036 365.72186Q305.40536 366.4406 305.76474 366.76874Q306.13974 367.08124 306.70224 367.08124Q307.1866 367.08124 307.546 366.8625Q307.921 366.6281 308.15536 366.26874Q308.38974 365.89374 308.546 365.26874Q308.70224 364.6281 308.70224 363.97186Q308.70224 363.89374 308.70224 363.7531Q308.38974 364.2531 307.84286 364.58124Q307.296 364.89374 306.65536 364.89374Q305.57724 364.89374 304.84286 364.1281Q304.1085 363.34686 304.1085 362.08124Q304.1085 360.76874 304.8741 359.97186Q305.65536 359.175 306.8116 359.175Q307.63974 359.175 308.32724 359.6281Q309.03036 360.08124 309.38974 360.925Q309.7491 361.7531 309.7491 363.33124Q309.7491 364.97186 309.38974 365.95624Q309.046 366.925 308.32724 367.4406Q307.6241 367.9406 306.6866 367.9406Q305.671 367.9406 305.03036 367.39374Q304.38974 366.83124 304.26474 365.8156ZM308.57724 362.01874Q308.57724 361.1125 308.09286 360.58124Q307.6241 360.05 306.9366 360.05Q306.2335 360.05 305.70224 360.6281Q305.1866 361.1906 305.1866 362.1125Q305.1866 362.925 305.6866 363.4406Q306.1866 363.95624 306.90536 363.95624Q307.63974 363.95624 308.1085 363.4406Q308.57724 362.925 308.57724 362.01874Z" fill-rule="nonzero"/><path fill="#000000" d="M330.73386 367.8L329.68698 367.8L329.68698 361.08124Q329.29636 361.4406 328.67136 361.8156Q328.06198 362.175 327.5776 362.34686L327.5776 361.33124Q328.4526 360.90936 329.10886 360.33124Q329.78073 359.7375 330.06198 359.175L330.73386 359.175L330.73386 367.8ZM333.7651 363.5656Q333.7651 362.03436 334.0776 361.1125Q334.3901 360.175 334.99948 359.675Q335.62448 359.175 336.56198 359.175Q337.24948 359.175 337.7651 359.45624Q338.29636 359.7375 338.6401 360.26874Q338.98386 360.78436 339.17136 361.53436Q339.35886 362.28436 339.35886 363.5656Q339.35886 365.08124 339.04636 366.0031Q338.74948 366.925 338.12448 367.4406Q337.5151 367.9406 336.56198 367.9406Q335.3276 367.9406 334.60886 367.05Q333.7651 365.9875 333.7651 363.5656ZM334.84323 363.5656Q334.84323 365.675 335.34323 366.3781Q335.84323 367.08124 336.56198 367.08124Q337.29636 367.08124 337.78073 366.3781Q338.28073 365.675 338.28073 363.5656Q338.28073 361.4406 337.78073 360.7531Q337.29636 360.05 336.54636 360.05Q335.8276 360.05 335.3901 360.65936Q334.84323 361.4406 334.84323 363.5656Z" fill-rule="nonzero"/><path fill="#000000" d="M356.89044 367.8L355.84357 367.8L355.84357 361.08124Q355.45294 361.4406 354.82794 361.8156Q354.21857 362.175 353.7342 362.34686L353.7342 361.33124Q354.6092 360.90936 355.26544 360.33124Q355.93732 359.7375 356.21857 359.175L356.89044 359.175L356.89044 367.8ZM363.89044 367.8L362.84357 367.8L362.84357 361.08124Q362.45294 361.4406 361.82794 361.8156Q361.21857 362.175 360.7342 362.34686L360.7342 361.33124Q361.6092 360.90936 362.26544 360.33124Q362.93732 359.7375 363.21857 359.175L363.89044 359.175L363.89044 367.8Z" fill-rule="nonzero"/><path fill="#000000" d="M383.04706 367.8L382.00018 367.8L382.00018 361.08124Q381.60956 361.4406 380.98456 361.8156Q380.37518 362.175 379.8908 362.34686L379.8908 361.33124Q380.7658 360.90936 381.42206 360.33124Q382.09393 359.7375 382.37518 359.175L383.04706 359.175L383.04706 367.8ZM391.62518 366.78436L391.62518 367.8L385.93768 367.8Q385.93768 367.425 386.06268 367.0656Q386.28143 366.4875 386.75018 365.925Q387.23456 365.3625 388.1408 364.6281Q389.54706 363.47186 390.03143 362.8Q390.53143 362.1281 390.53143 361.53436Q390.53143 360.90936 390.0783 360.4875Q389.62518 360.05 388.90643 360.05Q388.1408 360.05 387.68768 360.5031Q387.23456 360.95624 387.21893 361.76874L386.1408 361.65936Q386.25018 360.4406 386.96893 359.8156Q387.7033 359.175 388.93768 359.175Q390.17206 359.175 390.8908 359.8625Q391.60956 360.55 391.60956 361.5656Q391.60956 362.08124 391.3908 362.58124Q391.18768 363.0656 390.68768 363.6281Q390.2033 364.175 389.0783 365.1281Q388.12518 365.925 387.84393 366.22186Q387.5783 366.5031 387.40643 366.78436L391.62518 366.78436Z" fill-rule="nonzero"/><path fill="#000000" d="M409.20364 367.8L408.15677 367.8L408.15677 361.08124Q407.76614 361.4406 407.14114 361.8156Q406.53177 362.175 406.0474 362.34686L406.0474 361.33124Q406.9224 360.90936 407.57864 360.33124Q408.25052 359.7375 408.53177 359.175L409.20364 359.175L409.20364 367.8ZM412.2349 365.53436L413.2974 365.39374Q413.46927 366.28436 413.90677 366.6906Q414.34427 367.08124 414.96927 367.08124Q415.71927 367.08124 416.2349 366.5656Q416.75052 366.05 416.75052 365.28436Q416.75052 364.5656 416.26614 364.09686Q415.7974 363.6125 415.06302 363.6125Q414.76614 363.6125 414.31302 363.7375L414.43802 362.8Q414.5474 362.8156 414.6099 362.8156Q415.28177 362.8156 415.81302 362.47186Q416.3599 362.1125 416.3599 361.3781Q416.3599 360.8 415.96927 360.425Q415.57864 360.03436 414.95364 360.03436Q414.34427 360.03436 413.9224 360.425Q413.51614 360.8156 413.40677 361.58124L412.34427 361.39374Q412.53177 360.34686 413.21927 359.76874Q413.90677 359.175 414.9224 359.175Q415.62552 359.175 416.21927 359.4875Q416.81302 359.78436 417.12552 360.3Q417.43802 360.8156 417.43802 361.40936Q417.43802 361.95624 417.14114 362.425Q416.84427 362.8781 416.26614 363.14374Q417.01614 363.3156 417.43802 363.8781Q417.8599 364.425 417.8599 365.26874Q417.8599 366.39374 417.03177 367.175Q416.21927 367.95624 414.96927 367.95624Q413.84427 367.95624 413.09427 367.28436Q412.34427 366.59686 412.2349 365.53436Z" fill-rule="nonzero"/><path fill="#000000" d="M435.36026 367.8L434.3134 367.8L434.3134 361.08124Q433.92276 361.4406 433.29776 361.8156Q432.6884 362.175 432.204 362.34686L432.204 361.33124Q433.079 360.90936 433.73526 360.33124Q434.40714 359.7375 434.6884 359.175L435.36026 359.175L435.36026 367.8ZM441.7665 367.8L441.7665 365.7375L438.04776 365.7375L438.04776 364.76874L441.96964 359.20624L442.829 359.20624L442.829 364.76874L443.98526 364.76874L443.98526 365.7375L442.829 365.7375L442.829 367.8L441.7665 367.8ZM441.7665 364.76874L441.7665 360.90936L439.079 364.76874L441.7665 364.76874Z" fill-rule="nonzero"/><path fill="#000000" d="M461.51685 367.8L460.46997 367.8L460.46997 361.08124Q460.07935 361.4406 459.45435 361.8156Q458.84497 362.175 458.3606 362.34686L458.3606 361.33124Q459.2356 360.90936 459.89185 360.33124Q460.56372 359.7375 460.84497 359.175L461.51685 359.175L461.51685 367.8ZM464.5481 365.55L465.65747 365.45624Q465.78247 366.26874 466.21997 366.675Q466.6731 367.08124 467.31372 367.08124Q468.06372 367.08124 468.59497 366.5031Q469.12622 365.925 469.12622 364.9875Q469.12622 364.08124 468.6106 363.5656Q468.1106 363.03436 467.28247 363.03436Q466.78247 363.03436 466.3606 363.26874Q465.95435 363.5031 465.71997 363.8625L464.7356 363.7375L465.56372 359.33124L469.84497 359.33124L469.84497 360.33124L466.40747 360.33124L465.95435 362.64374Q466.71997 362.09686 467.56372 362.09686Q468.68872 362.09686 469.45435 362.8781Q470.2356 363.65936 470.2356 364.89374Q470.2356 366.05 469.56372 366.90936Q468.7356 367.9406 467.31372 367.9406Q466.14185 367.9406 465.39185 367.28436Q464.65747 366.6281 464.5481 365.55Z" fill-rule="nonzero"/><path fill="#000000" d="M487.67346 367.8L486.6266 367.8L486.6266 361.08124Q486.23596 361.4406 485.61096 361.8156Q485.0016 362.175 484.5172 362.34686L484.5172 361.33124Q485.3922 360.90936 486.04846 360.33124Q486.72034 359.7375 487.0016 359.175L487.67346 359.175L487.67346 367.8ZM496.17346 361.3156L495.1266 361.39374Q494.98596 360.76874 494.73596 360.4875Q494.29846 360.03436 493.67346 360.03436Q493.17346 360.03436 492.78284 360.3156Q492.29846 360.6906 492.0016 361.39374Q491.72034 362.08124 491.7047 363.3625Q492.0797 362.78436 492.6266 362.5031Q493.1891 362.22186 493.79846 362.22186Q494.84534 362.22186 495.5797 363.0031Q496.3297 363.78436 496.3297 365.0031Q496.3297 365.8156 495.97034 366.51874Q495.6266 367.20624 495.0172 367.58124Q494.40784 367.9406 493.6422 367.9406Q492.3141 367.9406 491.48596 366.97186Q490.65784 366.0031 490.65784 363.78436Q490.65784 361.28436 491.5797 360.15936Q492.3766 359.175 493.73596 359.175Q494.7516 359.175 495.3922 359.7531Q496.04846 360.3156 496.17346 361.3156ZM491.8766 365.01874Q491.8766 365.5656 492.09534 366.0656Q492.3297 366.55 492.73596 366.8156Q493.15784 367.08124 493.6266 367.08124Q494.28284 367.08124 494.7672 366.55Q495.2516 366.0031 495.2516 365.08124Q495.2516 364.1906 494.7672 363.675Q494.29846 363.15936 493.5797 363.15936Q492.86096 363.15936 492.36096 363.675Q491.8766 364.1906 491.8766 365.01874Z" fill-rule="nonzero"/><path fill="#000000" d="M513.8301 367.8L512.7832 367.8L512.7832 361.08124Q512.3926 361.4406 511.76755 361.8156Q511.15817 362.175 510.6738 362.34686L510.6738 361.33124Q511.5488 360.90936 512.2051 360.33124Q512.87695 359.7375 513.1582 359.175L513.8301 359.175L513.8301 367.8ZM516.9238 360.33124L516.9238 359.3156L522.4863 359.3156L522.4863 360.14374Q521.6738 361.01874 520.8613 362.47186Q520.06445 363.90936 519.62695 365.4406Q519.2988 366.51874 519.2207 367.8L518.12695 367.8Q518.1426 366.78436 518.5176 365.34686Q518.9082 363.90936 519.6113 362.58124Q520.3301 361.2531 521.1426 360.33124L516.9238 360.33124Z" fill-rule="nonzero"/><path fill="#000000" d="M539.98663 367.8L538.93976 367.8L538.93976 361.08124Q538.54913 361.4406 537.92413 361.8156Q537.31476 362.175 536.8304 362.34686L536.8304 361.33124Q537.7054 360.90936 538.36163 360.33124Q539.0335 359.7375 539.31476 359.175L539.98663 359.175L539.98663 367.8ZM544.6429 363.14374Q543.98663 362.89374 543.6585 362.45624Q543.346 362.0031 543.346 361.39374Q543.346 360.45624 544.0179 359.8156Q544.7054 359.175 545.81476 359.175Q546.93976 359.175 547.62726 359.83124Q548.31476 360.4875 548.31476 361.425Q548.31476 362.01874 548.00226 362.45624Q547.68976 362.89374 547.04913 363.14374Q547.846 363.39374 548.25226 363.97186Q548.6585 364.55 548.6585 365.34686Q548.6585 366.4406 547.87726 367.1906Q547.11163 367.9406 545.8304 367.9406Q544.56476 367.9406 543.7835 367.1906Q543.00226 366.4406 543.00226 365.3156Q543.00226 364.47186 543.42413 363.90936Q543.86163 363.34686 544.6429 363.14374ZM544.42413 361.34686Q544.42413 361.95624 544.81476 362.34686Q545.221 362.7375 545.846 362.7375Q546.4554 362.7375 546.846 362.3625Q547.23663 361.97186 547.23663 361.40936Q547.23663 360.83124 546.8304 360.4406Q546.42413 360.03436 545.8304 360.03436Q545.221 360.03436 544.81476 360.425Q544.42413 360.8156 544.42413 361.34686ZM544.096 365.3156Q544.096 365.76874 544.29913 366.1906Q544.5179 366.6125 544.93976 366.84686Q545.36163 367.08124 545.846 367.08124Q546.596 367.08124 547.0804 366.59686Q547.5804 366.1125 547.5804 365.3625Q547.5804 364.59686 547.0804 364.09686Q546.5804 363.59686 545.81476 363.59686Q545.06476 363.59686 544.5804 364.09686Q544.096 364.58124 544.096 365.3156Z" fill-rule="nonzero"/><path fill="#000000" d="M566.14325 367.8L565.0964 367.8L565.0964 361.08124Q564.70575 361.4406 564.08075 361.8156Q563.4714 362.175 562.987 362.34686L562.987 361.33124Q563.862 360.90936 564.51825 360.33124Q565.1901 359.7375 565.4714 359.175L566.14325 359.175L566.14325 367.8ZM569.33075 365.8156L570.3464 365.72186Q570.4714 366.4406 570.83075 366.76874Q571.20575 367.08124 571.76825 367.08124Q572.2526 367.08124 572.612 366.8625Q572.987 366.6281 573.2214 366.26874Q573.45575 365.89374 573.612 365.26874Q573.76825 364.6281 573.76825 363.97186Q573.76825 363.89374 573.76825 363.7531Q573.45575 364.2531 572.9089 364.58124Q572.362 364.89374 571.7214 364.89374Q570.64325 364.89374 569.9089 364.1281Q569.1745 363.34686 569.1745 362.08124Q569.1745 360.76874 569.9401 359.97186Q570.7214 359.175 571.8776 359.175Q572.70575 359.175 573.39325 359.6281Q574.0964 360.08124 574.45575 360.925Q574.8151 361.7531 574.8151 363.33124Q574.8151 364.97186 574.45575 365.95624Q574.112 366.925 573.39325 367.4406Q572.6901 367.9406 571.7526 367.9406Q570.737 367.9406 570.0964 367.39374Q569.45575 366.83124 569.33075 365.8156ZM573.64325 362.01874Q573.64325 361.1125 573.1589 360.58124Q572.6901 360.05 572.0026 360.05Q571.2995 360.05 570.76825 360.6281Q570.2526 361.1906 570.2526 362.1125Q570.2526 362.925 570.7526 363.4406Q571.2526 363.95624 571.9714 363.95624Q572.70575 363.95624 573.1745 363.4406Q573.64325 362.925 573.64325 362.01874Z" fill-rule="nonzero"/><path fill="#000000" d="M593.878 366.78436L593.878 367.8L588.1905 367.8Q588.1905 367.425 588.3155 367.0656Q588.53424 366.4875 589.003 365.925Q589.48737 365.3625 590.3936 364.6281Q591.79987 363.47186 592.28424 362.8Q592.78424 362.1281 592.78424 361.53436Q592.78424 360.90936 592.3311 360.4875Q591.878 360.05 591.15924 360.05Q590.3936 360.05 589.9405 360.5031Q589.48737 360.95624 589.47174 361.76874L588.3936 361.65936Q588.503 360.4406 589.22174 359.8156Q589.9561 359.175 591.1905 359.175Q592.42487 359.175 593.1436 359.8625Q593.86237 360.55 593.86237 361.5656Q593.86237 362.08124 593.6436 362.58124Q593.4405 363.0656 592.9405 363.6281Q592.4561 364.175 591.3311 365.1281Q590.378 365.925 590.09674 366.22186Q589.8311 366.5031 589.65924 366.78436L593.878 366.78436ZM595.3311 363.5656Q595.3311 362.03436 595.6436 361.1125Q595.9561 360.175 596.5655 359.675Q597.1905 359.175 598.128 359.175Q598.8155 359.175 599.3311 359.45624Q599.86237 359.7375 600.2061 360.26874Q600.54987 360.78436 600.73737 361.53436Q600.92487 362.28436 600.92487 363.5656Q600.92487 365.08124 600.61237 366.0031Q600.3155 366.925 599.6905 367.4406Q599.0811 367.9406 598.128 367.9406Q596.8936 367.9406 596.17487 367.05Q595.3311 365.9875 595.3311 363.5656ZM596.40924 363.5656Q596.40924 365.675 596.90924 366.3781Q597.40924 367.08124 598.128 367.08124Q598.86237 367.08124 599.34674 366.3781Q599.84674 365.675 599.84674 363.5656Q599.84674 361.4406 599.34674 360.7531Q598.86237 360.05 598.11237 360.05Q597.3936 360.05 596.9561 360.65936Q596.40924 361.4406 596.40924 363.5656Z" fill-rule="nonzero"/><path fill="#000000" d="M620.03455 366.78436L620.03455 367.8L614.34705 367.8Q614.34705 367.425 614.47205 367.0656Q614.6908 366.4875 615.15955 365.925Q615.6439 365.3625 616.5502 364.6281Q617.9564 363.47186 618.4408 362.8Q618.9408 362.1281 618.9408 361.53436Q618.9408 360.90936 618.4877 360.4875Q618.03455 360.05 617.3158 360.05Q616.5502 360.05 616.09705 360.5031Q615.6439 360.95624 615.6283 361.76874L614.5502 361.65936Q614.65955 360.4406 615.3783 359.8156Q616.1127 359.175 617.34705 359.175Q618.5814 359.175 619.3002 359.8625Q620.0189 360.55 620.0189 361.5656Q620.0189 362.08124 619.8002 362.58124Q619.59705 363.0656 619.09705 363.6281Q618.6127 364.175 617.4877 365.1281Q616.53455 365.925 616.2533 366.22186Q615.9877 366.5031 615.8158 366.78436L620.03455 366.78436ZM625.4564 367.8L624.40955 367.8L624.40955 361.08124Q624.0189 361.4406 623.3939 361.8156Q622.78455 362.175 622.3002 362.34686L622.3002 361.33124Q623.1752 360.90936 623.8314 360.33124Q624.5033 359.7375 624.78455 359.175L625.4564 359.175L625.4564 367.8Z" fill-rule="nonzero"/><path fill="#000000" d="M646.19116 366.78436L646.19116 367.8L640.50366 367.8Q640.50366 367.425 640.62866 367.0656Q640.8474 366.4875 641.31616 365.925Q641.80054 365.3625 642.7068 364.6281Q644.11304 363.47186 644.5974 362.8Q645.0974 362.1281 645.0974 361.53436Q645.0974 360.90936 644.6443 360.4875Q644.19116 360.05 643.4724 360.05Q642.7068 360.05 642.25366 360.5031Q641.80054 360.95624 641.7849 361.76874L640.7068 361.65936Q640.81616 360.4406 641.5349 359.8156Q642.2693 359.175 643.50366 359.175Q644.73804 359.175 645.4568 359.8625Q646.17554 360.55 646.17554 361.5656Q646.17554 362.08124 645.9568 362.58124Q645.75366 363.0656 645.25366 363.6281Q644.7693 364.175 643.6443 365.1281Q642.69116 365.925 642.4099 366.22186Q642.1443 366.5031 641.9724 366.78436L646.19116 366.78436ZM653.19116 366.78436L653.19116 367.8L647.50366 367.8Q647.50366 367.425 647.62866 367.0656Q647.8474 366.4875 648.31616 365.925Q648.80054 365.3625 649.7068 364.6281Q651.11304 363.47186 651.5974 362.8Q652.0974 362.1281 652.0974 361.53436Q652.0974 360.90936 651.6443 360.4875Q651.19116 360.05 650.4724 360.05Q649.7068 360.05 649.25366 360.5031Q648.80054 360.95624 648.7849 361.76874L647.7068 361.65936Q647.81616 360.4406 648.5349 359.8156Q649.2693 359.175 650.50366 359.175Q651.73804 359.175 652.4568 359.8625Q653.17554 360.55 653.17554 361.5656Q653.17554 362.08124 652.9568 362.58124Q652.75366 363.0656 652.25366 363.6281Q651.7693 364.175 650.6443 365.1281Q649.69116 365.925 649.4099 366.22186Q649.1443 366.5031 648.9724 366.78436L653.19116 366.78436Z" fill-rule="nonzero"/><path fill="#4285f4" d="M255.5 61.333332C255.5 60.781048 255.94771 60.333332 256.5 60.333332L266.5 60.333332C267.05228 60.333332 267.5 60.781048 267.5 61.333332L267.5 71.333336C267.5 71.88562 267.05228 72.333336 266.5 72.333336L256.5 72.333336C255.94771 72.333336 255.5 71.88562 255.5 71.333336Z" fill-rule="nonzero"/><path fill="#1a1a1a" d="M279.96875 70.333336L278.92188 70.333336L278.92188 63.614586Q278.53125 63.97396 277.90625 64.34896Q277.29688 64.708336 276.8125 64.88021L276.8125 63.864586Q277.6875 63.44271 278.34375 62.864586Q279.01562 62.270836 279.29688 61.708336L279.96875 61.708336L279.96875 70.333336ZM290.54688 68.333336L291.64062 68.458336Q291.39062 69.41146 290.6875 69.94271Q289.98438 70.47396 288.90625 70.47396Q287.54688 70.47396 286.73438 69.63021Q285.9375 68.78646 285.9375 67.270836Q285.9375 65.708336 286.75 64.84896Q287.5625 63.97396 288.84375 63.97396Q290.09375 63.97396 290.875 64.81771Q291.67188 65.66146 291.67188 67.208336Q291.67188 67.302086 291.67188 67.489586L287.03125 67.489586Q287.09375 68.520836 287.60938 69.06771Q288.125 69.59896 288.90625 69.59896Q289.48438 69.59896 289.89062 69.302086Q290.3125 68.989586 290.54688 68.333336ZM287.09375 66.63021L290.5625 66.63021Q290.5 65.833336 290.17188 65.44271Q289.65625 64.833336 288.85938 64.833336Q288.125 64.833336 287.625 65.31771Q287.14062 65.802086 287.09375 66.63021ZM292.59375 70.333336L294.85938 67.09896L292.76562 64.114586L294.07812 64.114586L295.03125 65.56771Q295.29688 65.989586 295.46875 66.270836Q295.71875 65.88021 295.9375 65.583336L296.98438 64.114586L298.25 64.114586L296.09375 67.03646L298.40625 70.333336L297.125 70.333336L295.84375 68.395836L295.5 67.88021L293.85938 70.333336L292.59375 70.333336ZM302.54688 68.333336L303.64062 68.458336Q303.39062 69.41146 302.6875 69.94271Q301.98438 70.47396 300.90625 70.47396Q299.54688 70.47396 298.73438 69.63021Q297.9375 68.78646 297.9375 67.270836Q297.9375 65.708336 298.75 64.84896Q299.5625 63.97396 300.84375 63.97396Q302.09375 63.97396 302.875 64.81771Q303.67188 65.66146 303.67188 67.208336Q303.67188 67.302086 303.67188 67.489586L299.03125 67.489586Q299.09375 68.520836 299.60938 69.06771Q300.125 69.59896 300.90625 69.59896Q301.48438 69.59896 301.89062 69.302086Q302.3125 68.989586 302.54688 68.333336ZM299.09375 66.63021L302.5625 66.63021Q302.5 65.833336 302.17188 65.44271Q301.65625 64.833336 300.85938 64.833336Q300.125 64.833336 299.625 65.31771Q299.14062 65.802086 299.09375 66.63021ZM309.35938 68.052086L310.39062 68.19271Q310.21875 69.25521 309.51562 69.864586Q308.8125 70.47396 307.79688 70.47396Q306.51562 70.47396 305.73438 69.645836Q304.96875 68.802086 304.96875 67.239586Q304.96875 66.239586 305.29688 65.489586Q305.64062 64.72396 306.3125 64.34896Q307.0 63.97396 307.8125 63.97396Q308.8125 63.97396 309.45312 64.489586Q310.10938 64.989586 310.29688 65.94271L309.26562 66.09896Q309.125 65.47396 308.75 65.16146Q308.375 64.833336 307.84375 64.833336Q307.04688 64.833336 306.54688 65.41146Q306.04688 65.97396 306.04688 67.208336Q306.04688 68.47396 306.53125 69.03646Q307.01562 69.59896 307.78125 69.59896Q308.40625 69.59896 308.8125 69.22396Q309.23438 68.84896 309.35938 68.052086ZM315.375 70.333336L315.375 69.41146Q314.64062 70.47396 313.39062 70.47396Q312.84375 70.47396 312.35938 70.270836Q311.89062 70.052086 311.65625 69.739586Q311.42188 69.41146 311.32812 68.94271Q311.26562 68.645836 311.26562 67.958336L311.26562 64.114586L312.32812 64.114586L312.32812 67.56771Q312.32812 68.38021 312.39062 68.677086Q312.48438 69.083336 312.79688 69.333336Q313.125 69.56771 313.60938 69.56771Q314.07812 69.56771 314.48438 69.333336Q314.90625 69.083336 315.07812 68.66146Q315.26562 68.239586 315.26562 67.44271L315.26562 64.114586L316.3125 64.114586L316.3125 70.333336L315.375 70.333336ZM320.59375 69.395836L320.75 70.31771Q320.29688 70.41146 319.95312 70.41146Q319.375 70.41146 319.0625 70.239586Q318.75 70.052086 318.60938 69.75521Q318.48438 69.458336 318.48438 68.50521L318.48438 64.927086L317.71875 64.927086L317.71875 64.114586L318.48438 64.114586L318.48438 62.56771L319.53125 61.94271L319.53125 64.114586L320.59375 64.114586L320.59375 64.927086L319.53125 64.927086L319.53125 68.56771Q319.53125 69.020836 319.57812 69.145836Q319.64062 69.270836 319.76562 69.34896Q319.89062 69.427086 320.125 69.427086Q320.3125 69.427086 320.59375 69.395836ZM320.90625 67.22396Q320.90625 65.489586 321.85938 64.66146Q322.65625 63.97396 323.8125 63.97396Q325.09375 63.97396 325.90625 64.81771Q326.73438 65.645836 326.73438 67.13021Q326.73438 68.333336 326.375 69.020836Q326.01562 69.708336 325.3125 70.09896Q324.625 70.47396 323.8125 70.47396Q322.51562 70.47396 321.70312 69.645836Q320.90625 68.802086 320.90625 67.22396ZM321.98438 67.22396Q321.98438 68.41146 322.5 69.00521Q323.03125 69.59896 323.8125 69.59896Q324.60938 69.59896 325.125 69.00521Q325.64062 68.41146 325.64062 67.19271Q325.64062 66.03646 325.10938 65.44271Q324.59375 64.84896 323.8125 64.84896Q323.03125 64.84896 322.5 65.44271Q321.98438 66.020836 321.98438 67.22396ZM328.28125 70.333336L328.28125 64.114586L329.23438 64.114586L329.23438 65.052086Q329.59375 64.395836 329.89062 64.19271Q330.20312 63.97396 330.57812 63.97396Q331.10938 63.97396 331.65625 64.302086L331.29688 65.28646Q330.90625 65.052086 330.53125 65.052086Q330.17188 65.052086 329.89062 65.270836Q329.625 65.47396 329.51562 65.84896Q329.32812 66.41146 329.32812 67.06771L329.32812 70.333336L328.28125 70.333336Z" fill-rule="nonzero"/><path fill="#ea4335" d="M347.5 61.333332C347.5 60.781048 347.94772 60.333332 348.5 60.333332L358.5 60.333332C359.05228 60.333332 359.5 60.781048 359.5 61.333332L359.5 71.333336C359.5 71.88562 359.05228 72.333336 358.5 72.333336L348.5 72.333336C347.94772 72.333336 347.5 71.88562 347.5 71.333336Z" fill-rule="nonzero"/><path fill="#1a1a1a" d="M369.625 65.677086Q368.96875 65.427086 368.64062 64.989586Q368.32812 64.53646 368.32812 63.927086Q368.32812 62.989586 369.0 62.34896Q369.6875 61.708336 370.79688 61.708336Q371.92188 61.708336 372.60938 62.364586Q373.29688 63.020836 373.29688 63.958336Q373.29688 64.552086 372.98438 64.989586Q372.67188 65.427086 372.03125 65.677086Q372.82812 65.927086 373.23438 66.50521Q373.64062 67.083336 373.64062 67.88021Q373.64062 68.97396 372.85938 69.72396Q372.09375 70.47396 370.8125 70.47396Q369.54688 70.47396 368.76562 69.72396Q367.98438 68.97396 367.98438 67.84896Q367.98438 67.00521 368.40625 66.44271Q368.84375 65.88021 369.625 65.677086ZM369.40625 63.88021Q369.40625 64.489586 369.79688 64.88021Q370.20312 65.270836 370.82812 65.270836Q371.4375 65.270836 371.82812 64.895836Q372.21875 64.50521 372.21875 63.94271Q372.21875 63.364586 371.8125 62.97396Q371.40625 62.56771 370.8125 62.56771Q370.20312 62.56771 369.79688 62.958336Q369.40625 63.34896 369.40625 63.88021ZM369.07812 67.84896Q369.07812 68.302086 369.28125 68.72396Q369.5 69.145836 369.92188 69.38021Q370.34375 69.614586 370.82812 69.614586Q371.57812 69.614586 372.0625 69.13021Q372.5625 68.645836 372.5625 67.895836Q372.5625 67.13021 372.0625 66.63021Q371.5625 66.13021 370.79688 66.13021Q370.04688 66.13021 369.5625 66.63021Q369.07812 67.114586 369.07812 67.84896ZM382.54688 68.333336L383.64062 68.458336Q383.39062 69.41146 382.6875 69.94271Q381.98438 70.47396 380.90625 70.47396Q379.54688 70.47396 378.73438 69.63021Q377.9375 68.78646 377.9375 67.270836Q377.9375 65.708336 378.75 64.84896Q379.5625 63.97396 380.84375 63.97396Q382.09375 63.97396 382.875 64.81771Q383.67188 65.66146 383.67188 67.208336Q383.67188 67.302086 383.67188 67.489586L379.03125 67.489586Q379.09375 68.520836 379.60938 69.06771Q380.125 69.59896 380.90625 69.59896Q381.48438 69.59896 381.89062 69.302086Q382.3125 68.989586 382.54688 68.333336ZM379.09375 66.63021L382.5625 66.63021Q382.5 65.833336 382.17188 65.44271Q381.65625 64.833336 380.85938 64.833336Q380.125 64.833336 379.625 65.31771Q379.14062 65.802086 379.09375 66.63021ZM384.59375 70.333336L386.85938 67.09896L384.76562 64.114586L386.07812 64.114586L387.03125 65.56771Q387.29688 65.989586 387.46875 66.270836Q387.71875 65.88021 387.9375 65.583336L388.98438 64.114586L390.25 64.114586L388.09375 67.03646L390.40625 70.333336L389.125 70.333336L387.84375 68.395836L387.5 67.88021L385.85938 70.333336L384.59375 70.333336ZM394.54688 68.333336L395.64062 68.458336Q395.39062 69.41146 394.6875 69.94271Q393.98438 70.47396 392.90625 70.47396Q391.54688 70.47396 390.73438 69.63021Q389.9375 68.78646 389.9375 67.270836Q389.9375 65.708336 390.75 64.84896Q391.5625 63.97396 392.84375 63.97396Q394.09375 63.97396 394.875 64.81771Q395.67188 65.66146 395.67188 67.208336Q395.67188 67.302086 395.67188 67.489586L391.03125 67.489586Q391.09375 68.520836 391.60938 69.06771Q392.125 69.59896 392.90625 69.59896Q393.48438 69.59896 393.89062 69.302086Q394.3125 68.989586 394.54688 68.333336ZM391.09375 66.63021L394.5625 66.63021Q394.5 65.833336 394.17188 65.44271Q393.65625 64.833336 392.85938 64.833336Q392.125 64.833336 391.625 65.31771Q391.14062 65.802086 391.09375 66.63021ZM401.35938 68.052086L402.39062 68.19271Q402.21875 69.25521 401.51562 69.864586Q400.8125 70.47396 399.79688 70.47396Q398.51562 70.47396 397.73438 69.645836Q396.96875 68.802086 396.96875 67.239586Q396.96875 66.239586 397.29688 65.489586Q397.64062 64.72396 398.3125 64.34896Q399.0 63.97396 399.8125 63.97396Q400.8125 63.97396 401.45312 64.489586Q402.10938 64.989586 402.29688 65.94271L401.26562 66.09896Q401.125 65.47396 400.75 65.16146Q400.375 64.833336 399.84375 64.833336Q399.04688 64.833336 398.54688 65.41146Q398.04688 65.97396 398.04688 67.208336Q398.04688 68.47396 398.53125 69.03646Q399.01562 69.59896 399.78125 69.59896Q400.40625 69.59896 400.8125 69.22396Q401.23438 68.84896 401.35938 68.052086ZM407.375 70.333336L407.375 69.41146Q406.64062 70.47396 405.39062 70.47396Q404.84375 70.47396 404.35938 70.270836Q403.89062 70.052086 403.65625 69.739586Q403.42188 69.41146 403.32812 68.94271Q403.26562 68.645836 403.26562 67.958336L403.26562 64.114586L404.32812 64.114586L404.32812 67.56771Q404.32812 68.38021 404.39062 68.677086Q404.48438 69.083336 404.79688 69.333336Q405.125 69.56771 405.60938 69.56771Q406.07812 69.56771 406.48438 69.333336Q406.90625 69.083336 407.07812 68.66146Q407.26562 68.239586 407.26562 67.44271L407.26562 64.114586L408.3125 64.114586L408.3125 70.333336L407.375 70.333336ZM412.59375 69.395836L412.75 70.31771Q412.29688 70.41146 411.95312 70.41146Q411.375 70.41146 411.0625 70.239586Q410.75 70.052086 410.60938 69.75521Q410.48438 69.458336 410.48438 68.50521L410.48438 64.927086L409.71875 64.927086L409.71875 64.114586L410.48438 64.114586L410.48438 62.56771L411.53125 61.94271L411.53125 64.114586L412.59375 64.114586L412.59375 64.927086L411.53125 64.927086L411.53125 68.56771Q411.53125 69.020836 411.57812 69.145836Q411.64062 69.270836 411.76562 69.34896Q411.89062 69.427086 412.125 69.427086Q412.3125 69.427086 412.59375 69.395836ZM412.90625 67.22396Q412.90625 65.489586 413.85938 64.66146Q414.65625 63.97396 415.8125 63.97396Q417.09375 63.97396 417.90625 64.81771Q418.73438 65.645836 418.73438 67.13021Q418.73438 68.333336 418.375 69.020836Q418.01562 69.708336 417.3125 70.09896Q416.625 70.47396 415.8125 70.47396Q414.51562 70.47396 413.70312 69.645836Q412.90625 68.802086 412.90625 67.22396ZM413.98438 67.22396Q413.98438 68.41146 414.5 69.00521Q415.03125 69.59896 415.8125 69.59896Q416.60938 69.59896 417.125 69.00521Q417.64062 68.41146 417.64062 67.19271Q417.64062 66.03646 417.10938 65.44271Q416.59375 64.84896 415.8125 64.84896Q415.03125 64.84896 414.5 65.44271Q413.98438 66.020836 413.98438 67.22396ZM420.28125 70.333336L420.28125 64.114586L421.23438 64.114586L421.23438 65.052086Q421.59375 64.395836 421.89062 64.19271Q422.20312 63.97396 422.57812 63.97396Q423.10938 63.97396 423.65625 64.302086L423.29688 65.28646Q422.90625 65.052086 422.53125 65.052086Q422.17188 65.052086 421.89062 65.270836Q421.625 65.47396 421.51562 65.84896Q421.32812 66.41146 421.32812 67.06771L421.32812 70.333336L420.28125 70.333336ZM423.875 68.47396L424.90625 68.31771Q425.0 68.94271 425.39062 69.270836Q425.79688 69.59896 426.53125 69.59896Q427.25 69.59896 427.59375 69.31771Q427.95312 69.020836 427.95312 68.614586Q427.95312 68.25521 427.64062 68.052086Q427.42188 67.91146 426.5625 67.69271Q425.40625 67.395836 424.95312 67.19271Q424.51562 66.97396 424.28125 66.59896Q424.04688 66.22396 424.04688 65.75521Q424.04688 65.34896 424.23438 64.989586Q424.42188 64.63021 424.75 64.395836Q425.0 64.22396 425.42188 64.09896Q425.84375 63.97396 426.34375 63.97396Q427.0625 63.97396 427.60938 64.19271Q428.17188 64.395836 428.4375 64.75521Q428.70312 65.114586 428.79688 65.708336L427.76562 65.84896Q427.70312 65.38021 427.35938 65.114586Q427.03125 64.833336 426.40625 64.833336Q425.6875 64.833336 425.375 65.083336Q425.0625 65.31771 425.0625 65.645836Q425.0625 65.84896 425.1875 66.00521Q425.32812 66.177086 425.59375 66.28646Q425.75 66.34896 426.53125 66.552086Q427.65625 66.864586 428.09375 67.052086Q428.53125 67.239586 428.78125 67.59896Q429.03125 67.958336 429.03125 68.50521Q429.03125 69.03646 428.71875 69.50521Q428.42188 69.958336 427.84375 70.22396Q427.26562 70.47396 426.53125 70.47396Q425.3125 70.47396 424.67188 69.97396Q424.04688 69.458336 423.875 68.47396Z" fill-rule="nonzero"/><path fill="#757575" d="M26.3875 40.2L26.3875 27.575L21.66875 27.575L21.66875 25.8875L33.0125 25.8875L33.0125 27.575L28.278126 27.575L28.278126 40.2L26.3875 40.2ZM34.746876 40.2L34.746876 25.8875L40.1375 25.8875Q41.575 25.8875 42.325 26.0125Q43.371876 26.2 44.090626 26.7Q44.809376 27.184376 45.23125 28.075Q45.66875 28.965626 45.66875 30.028126Q45.66875 31.85625 44.496876 33.121876Q43.340626 34.371876 40.309376 34.371876L36.6375 34.371876L36.6375 40.2L34.746876 40.2ZM36.6375 32.684376L40.340626 32.684376Q42.16875 32.684376 42.934376 32.0125Q43.715626 31.325 43.715626 30.075Q43.715626 29.184376 43.2625 28.54375Q42.809376 27.903126 42.075 27.7Q41.590626 27.575 40.29375 27.575L36.6375 27.575L36.6375 32.684376ZM57.965626 35.184376L59.85625 35.653126Q59.2625 37.996876 57.715626 39.23125Q56.16875 40.45 53.91875 40.45Q51.60625 40.45 50.153126 39.5125Q48.715626 38.559376 47.95 36.778126Q47.2 34.98125 47.2 32.934376Q47.2 30.7 48.04375 29.04375Q48.903126 27.371876 50.48125 26.5125Q52.059376 25.6375 53.95 25.6375Q56.10625 25.6375 57.559376 26.73125Q59.028126 27.825 59.60625 29.809376L57.746876 30.246876Q57.246876 28.684376 56.29375 27.98125Q55.35625 27.2625 53.91875 27.2625Q52.2625 27.2625 51.153126 28.059376Q50.04375 28.840626 49.590626 30.184376Q49.153126 31.5125 49.153126 32.91875Q49.153126 34.746876 49.684376 36.121876Q50.215626 37.48125 51.340626 38.153126Q52.465626 38.825 53.7625 38.825Q55.35625 38.825 56.465626 37.903126Q57.575 36.98125 57.965626 35.184376ZM60.840626 35.903126L60.840626 34.1375L66.23125 34.1375L66.23125 35.903126L60.840626 35.903126ZM68.80937 40.2L68.80937 25.8875L70.7 25.8875L70.7 31.7625L78.1375 31.7625L78.1375 25.8875L80.02812 25.8875L80.02812 40.2L78.1375 40.2L78.1375 33.45L70.7 33.45L70.7 40.2L68.80937 40.2ZM87.52812 27.903126L87.52812 25.8875L89.29375 25.8875L89.29375 27.903126L87.52812 27.903126ZM87.52812 40.2L87.52812 29.825L89.29375 29.825L89.29375 40.2L87.52812 40.2ZM90.80937 37.10625L92.55937 36.825Q92.7 37.871876 93.37187 38.434376Q94.04375 38.98125 95.24687 38.98125Q96.45 38.98125 97.02812 38.496876Q97.62187 37.996876 97.62187 37.340626Q97.62187 36.746876 97.10625 36.403126Q96.74687 36.16875 95.30937 35.809376Q93.37187 35.309376 92.62187 34.965626Q91.8875 34.60625 91.49687 33.98125Q91.10625 33.340626 91.10625 32.575Q91.10625 31.8875 91.41875 31.29375Q91.74687 30.7 92.29375 30.309376Q92.7 30.0125 93.40312 29.809376Q94.12187 29.590626 94.93437 29.590626Q96.15312 29.590626 97.075 29.95Q97.99687 30.29375 98.43437 30.903126Q98.87187 31.496876 99.04375 32.496876L97.325 32.73125Q97.2 31.934376 96.6375 31.496876Q96.075 31.04375 95.05937 31.04375Q93.84062 31.04375 93.325 31.45Q92.80937 31.840626 92.80937 32.371876Q92.80937 32.715626 93.02812 32.996876Q93.23125 33.278126 93.7 33.465626Q93.96562 33.559376 95.24687 33.903126Q97.12187 34.403126 97.85625 34.73125Q98.59062 35.04375 99.0125 35.653126Q99.43437 36.246876 99.43437 37.153126Q99.43437 38.028126 98.91875 38.809376Q98.40312 39.590626 97.43437 40.0125Q96.46562 40.434376 95.24687 40.434376Q93.23125 40.434376 92.16875 39.590626Q91.10625 38.746876 90.80937 37.10625ZM100.87187 35.0125Q100.87187 32.1375 102.46562 30.746876Q103.80937 29.590626 105.73125 29.590626Q107.87187 29.590626 109.21562 30.996876Q110.575 32.403126 110.575 34.871876Q110.575 36.871876 109.98125 38.028126Q109.3875 39.16875 108.23125 39.809376Q107.09062 40.434376 105.73125 40.434376Q103.54375 40.434376 102.2 39.04375Q100.87187 37.6375 100.87187 35.0125ZM102.66875 35.0125Q102.66875 37.0125 103.52812 37.996876Q104.40312 38.98125 105.73125 38.98125Q107.04375 38.98125 107.90312 37.996876Q108.77812 36.996876 108.77812 34.95Q108.77812 33.028126 107.90312 32.04375Q107.02812 31.04375 105.73125 31.04375Q104.40312 31.04375 103.52812 32.04375Q102.66875 33.028126 102.66875 35.0125ZM112.48125 40.2L112.48125 25.8875L114.23125 25.8875L114.23125 40.2L112.48125 40.2ZM123.29375 38.91875Q122.30937 39.746876 121.40312 40.090626Q120.49687 40.434376 119.46562 40.434376Q117.7625 40.434376 116.84062 39.60625Q115.91875 38.7625 115.91875 37.465626Q115.91875 36.7 116.2625 36.075Q116.62187 35.45 117.18437 35.075Q117.74687 34.684376 118.45 34.48125Q118.96562 34.35625 120.0125 34.215626Q122.1375 33.965626 123.1375 33.621876Q123.15312 33.2625 123.15312 33.153126Q123.15312 32.090626 122.65312 31.6375Q121.98125 31.04375 120.65312 31.04375Q119.40312 31.04375 118.80937 31.48125Q118.23125 31.91875 117.95 33.028126L116.23125 32.79375Q116.46562 31.684376 116.99687 31.0125Q117.52812 30.325 118.54375 29.965626Q119.55937 29.590626 120.90312 29.590626Q122.23125 29.590626 123.05937 29.903126Q123.8875 30.215626 124.27812 30.7Q124.66875 31.16875 124.825 31.8875Q124.91875 32.340626 124.91875 33.5125L124.91875 35.85625Q124.91875 38.309376 125.02812 38.965626Q125.1375 39.60625 125.48125 40.2L123.6375 40.2Q123.37187 39.653126 123.29375 38.91875ZM123.1375 34.996876Q122.18437 35.3875 120.2625 35.653126Q119.18437 35.809376 118.73125 36.0125Q118.29375 36.2 118.04375 36.575Q117.79375 36.95 117.79375 37.41875Q117.79375 38.121876 118.325 38.590626Q118.85625 39.059376 119.8875 39.059376Q120.90312 39.059376 121.68437 38.621876Q122.48125 38.16875 122.85625 37.403126Q123.1375 36.79375 123.1375 35.6375L123.1375 34.996876ZM131.35625 38.621876L131.60625 40.184376Q130.87187 40.340626 130.27812 40.340626Q129.325 40.340626 128.79375 40.04375Q128.27812 39.73125 128.05937 39.246876Q127.84062 38.746876 127.84062 37.16875L127.84062 31.2L126.55937 31.2L126.55937 29.825L127.84062 29.825L127.84062 27.2625L129.59062 26.2L129.59062 29.825L131.35625 29.825L131.35625 31.2L129.59062 31.2L129.59062 37.2625Q129.59062 38.0125 129.68437 38.23125Q129.77812 38.434376 129.98125 38.575Q130.2 38.7 130.59062 38.7Q130.87187 38.7 131.35625 38.621876ZM140.62187 36.85625L142.43437 37.090626Q142.0125 38.66875 140.84062 39.559376Q139.68437 40.434376 137.87187 40.434376Q135.60625 40.434376 134.2625 39.04375Q132.93437 37.6375 132.93437 35.10625Q132.93437 32.48125 134.27812 31.04375Q135.62187 29.590626 137.77812 29.590626Q139.85625 29.590626 141.16875 31.0125Q142.49687 32.41875 142.49687 34.996876Q142.49687 35.153126 142.48125 35.465626L134.74687 35.465626Q134.84062 37.16875 135.71562 38.075Q136.59062 38.98125 137.8875 38.98125Q138.85625 38.98125 139.52812 38.48125Q140.21562 37.965626 140.62187 36.85625ZM134.84062 34.0125L140.6375 34.0125Q140.52812 32.715626 139.98125 32.059376Q139.1375 31.04375 137.79375 31.04375Q136.59062 31.04375 135.7625 31.85625Q134.93437 32.653126 134.84062 34.0125ZM151.24687 40.2L151.24687 38.8875Q150.2625 40.434376 148.34062 40.434376Q147.10625 40.434376 146.05937 39.746876Q145.02812 39.059376 144.45 37.840626Q143.8875 36.621876 143.8875 35.028126Q143.8875 33.465626 144.40312 32.2Q144.91875 30.934376 145.95 30.2625Q146.99687 29.590626 148.2625 29.590626Q149.2 29.590626 149.93437 29.996876Q150.66875 30.3875 151.1375 31.0125L151.1375 25.8875L152.87187 25.8875L152.87187 40.2L151.24687 40.2ZM145.68437 35.028126Q145.68437 37.0125 146.52812 37.996876Q147.37187 38.98125 148.5125 38.98125Q149.66875 38.98125 150.46562 38.04375Q151.27812 37.10625 151.27812 35.16875Q151.27812 33.04375 150.45 32.04375Q149.6375 31.04375 148.43437 31.04375Q147.2625 31.04375 146.46562 32.0125Q145.68437 32.965626 145.68437 35.028126ZM168.62187 36.85625L170.43437 37.090626Q170.0125 38.66875 168.84062 39.559376Q167.68437 40.434376 165.87187 40.434376Q163.60625 40.434376 162.2625 39.04375Q160.93437 37.6375 160.93437 35.10625Q160.93437 32.48125 162.27812 31.04375Q163.62187 29.590626 165.77812 29.590626Q167.85625 29.590626 169.16875 31.0125Q170.49687 32.41875 170.49687 34.996876Q170.49687 35.153126 170.48125 35.465626L162.74687 35.465626Q162.84062 37.16875 163.71562 38.075Q164.59062 38.98125 165.8875 38.98125Q166.85625 38.98125 167.52812 38.48125Q168.21562 37.965626 168.62187 36.85625ZM162.84062 34.0125L168.6375 34.0125Q168.52812 32.715626 167.98125 32.059376Q167.1375 31.04375 165.79375 31.04375Q164.59062 31.04375 163.7625 31.85625Q162.93437 32.653126 162.84062 34.0125ZM171.34062 40.2L175.1375 34.809376L171.6375 29.825L173.825 29.825L175.41875 32.2625Q175.87187 32.95 176.1375 33.41875Q176.575 32.778126 176.93437 32.278126L178.68437 29.825L180.77812 29.825L177.2 34.715626L181.05937 40.2L178.90312 40.2L176.7625 36.98125L176.2 36.10625L173.48125 40.2L171.34062 40.2ZM188.62187 36.85625L190.43437 37.090626Q190.0125 38.66875 188.84062 39.559376Q187.68437 40.434376 185.87187 40.434376Q183.60625 40.434376 182.2625 39.04375Q180.93437 37.6375 180.93437 35.10625Q180.93437 32.48125 182.27812 31.04375Q183.62187 29.590626 185.77812 29.590626Q187.85625 29.590626 189.16875 31.0125Q190.49687 32.41875 190.49687 34.996876Q190.49687 35.153126 190.48125 35.465626L182.74687 35.465626Q182.84062 37.16875 183.71562 38.075Q184.59062 38.98125 185.8875 38.98125Q186.85625 38.98125 187.52812 38.48125Q188.21562 37.965626 188.62187 36.85625ZM182.84062 34.0125L188.6375 34.0125Q188.52812 32.715626 187.98125 32.059376Q187.1375 31.04375 185.79375 31.04375Q184.59062 31.04375 183.7625 31.85625Q182.93437 32.653126 182.84062 34.0125ZM199.29375 36.403126L201.0125 36.621876Q200.73125 38.41875 199.55937 39.434376Q198.40312 40.434376 196.7 40.434376Q194.575 40.434376 193.27812 39.04375Q191.98125 37.653126 191.98125 35.059376Q191.98125 33.371876 192.52812 32.121876Q193.09062 30.85625 194.23125 30.23125Q195.37187 29.590626 196.71562 29.590626Q198.40312 29.590626 199.46562 30.45Q200.54375 31.309376 200.85625 32.871876L199.1375 33.1375Q198.90312 32.090626 198.27812 31.575Q197.65312 31.04375 196.77812 31.04375Q195.45 31.04375 194.62187 31.996876Q193.79375 32.95 193.79375 34.996876Q193.79375 37.090626 194.59062 38.04375Q195.3875 38.98125 196.68437 38.98125Q197.71562 38.98125 198.40312 38.35625Q199.10625 37.715626 199.29375 36.403126ZM212.35625 38.621876L212.60625 40.184376Q211.87187 40.340626 211.27812 40.340626Q210.325 40.340626 209.79375 40.04375Q209.27812 39.73125 209.05937 39.246876Q208.84062 38.746876 208.84062 37.16875L208.84062 31.2L207.55937 31.2L207.55937 29.825L208.84062 29.825L208.84062 27.2625L210.59062 26.2L210.59062 29.825L212.35625 29.825L212.35625 31.2L210.59062 31.2L210.59062 37.2625Q210.59062 38.0125 210.68437 38.23125Q210.77812 38.434376 210.98125 38.575Q211.2 38.7 211.59062 38.7Q211.87187 38.7 212.35625 38.621876ZM214.52812 27.903126L214.52812 25.8875L216.29375 25.8875L216.29375 27.903126L214.52812 27.903126ZM214.52812 40.2L214.52812 29.825L216.29375 29.825L216.29375 40.2L214.52812 40.2ZM218.5125 40.2L218.5125 29.825L220.09062 29.825L220.09062 31.278126Q220.575 30.528126 221.3875 30.059376Q222.2 29.590626 223.23125 29.590626Q224.3875 29.590626 225.12187 30.075Q225.85625 30.54375 226.16875 31.403126Q227.40312 29.590626 229.37187 29.590626Q230.91875 29.590626 231.74687 30.45Q232.575 31.309376 232.575 33.075L232.575 40.2L230.825 40.2L230.825 33.66875Q230.825 32.60625 230.65312 32.153126Q230.48125 31.684376 230.02812 31.403126Q229.59062 31.121876 228.98125 31.121876Q227.8875 31.121876 227.15312 31.85625Q226.43437 32.575 226.43437 34.16875L226.43437 40.2L224.68437 40.2L224.68437 33.465626Q224.68437 32.29375 224.24687 31.715626Q223.825 31.121876 222.84062 31.121876Q222.10625 31.121876 221.46562 31.5125Q220.84062 31.903126 220.55937 32.653126Q220.27812 33.403126 220.27812 34.825L220.27812 40.2L218.5125 40.2ZM241.62187 36.85625L243.43437 37.090626Q243.0125 38.66875 241.84062 39.559376Q240.68437 40.434376 238.87187 40.434376Q236.60625 40.434376 235.2625 39.04375Q233.93437 37.6375 233.93437 35.10625Q233.93437 32.48125 235.27812 31.04375Q236.62187 29.590626 238.77812 29.590626Q240.85625 29.590626 242.16875 31.0125Q243.49687 32.41875 243.49687 34.996876Q243.49687 35.153126 243.48125 35.465626L235.74687 35.465626Q235.84062 37.16875 236.71562 38.075Q237.59062 38.98125 238.8875 38.98125Q239.85625 38.98125 240.52812 38.48125Q241.21562 37.965626 241.62187 36.85625ZM235.84062 34.0125L241.6375 34.0125Q241.52812 32.715626 240.98125 32.059376Q240.1375 31.04375 238.79375 31.04375Q237.59062 31.04375 236.7625 31.85625Q235.93437 32.653126 235.84062 34.0125Z" fill-rule="nonzero"/></svg>